<?xml version="1.0" encoding="UTF-8"?>
<svg xmlns="http://www.w3.org/2000/svg" xmlns:xlink="http://www.w3.org/1999/xlink" width="24px" height="24px" viewBox="0 0 24 24" version="1.1">
<g id="surface1">
<path style=" stroke:none;fill-rule:nonzero;fill:rgb(99.607843%,99.607843%,99.607843%);fill-opacity:1;" d="M 0 0 C 7.921875 0 15.839844 0 24 0 C 24 7.921875 24 15.839844 24 24 C 16.078125 24 8.160156 24 0 24 C 0 16.078125 0 8.160156 0 0 Z M 0 0 "/>
<path style=" stroke:none;fill-rule:nonzero;fill:rgb(0.784314%,0.784314%,0.784314%);fill-opacity:1;" d="M 3.320312 9.21875 C 3.402344 9.257812 3.449219 9.304688 3.5 9.378906 C 3.515625 9.433594 3.527344 9.484375 3.535156 9.535156 C 3.742188 10.570312 4.339844 11.742188 5.226562 12.355469 C 5.480469 12.523438 5.761719 12.652344 6.058594 12.71875 C 6.078125 12.726562 6.101562 12.730469 6.121094 12.734375 C 6.28125 12.773438 6.441406 12.792969 6.605469 12.8125 C 6.628906 12.816406 6.648438 12.816406 6.671875 12.820312 C 7.003906 12.855469 7.335938 12.863281 7.671875 12.863281 C 7.738281 12.863281 7.808594 12.863281 7.875 12.863281 C 8.707031 12.867188 9.5625 12.816406 10.1875 12.210938 C 10.230469 12.167969 10.273438 12.132812 10.316406 12.097656 C 10.535156 11.910156 10.714844 11.648438 10.855469 11.398438 C 10.867188 11.382812 10.867188 11.382812 10.875 11.363281 C 10.890625 11.339844 10.902344 11.3125 10.914062 11.289062 C 10.941406 11.238281 10.941406 11.238281 10.976562 11.183594 C 11.121094 10.933594 11.097656 10.660156 11.09375 10.378906 C 11.09375 10.285156 11.09375 10.191406 11.09375 10.097656 C 11.09375 10.046875 11.09375 9.996094 11.089844 9.945312 C 11.089844 9.816406 11.089844 9.734375 11.179688 9.640625 C 11.238281 9.59375 11.273438 9.582031 11.347656 9.570312 C 11.457031 9.585938 11.511719 9.628906 11.582031 9.707031 C 11.644531 9.804688 11.628906 9.914062 11.625 10.027344 C 11.625 10.074219 11.625 10.125 11.625 10.171875 C 11.625 10.25 11.625 10.328125 11.625 10.402344 C 11.621094 10.714844 11.625 10.957031 11.800781 11.21875 C 11.824219 11.261719 11.84375 11.300781 11.867188 11.34375 C 11.984375 11.539062 12.125 11.710938 12.277344 11.875 C 12.316406 11.914062 12.351562 11.957031 12.386719 12 C 12.945312 12.636719 13.644531 12.796875 14.457031 12.855469 C 14.632812 12.867188 14.8125 12.867188 14.992188 12.867188 C 15.011719 12.867188 15.035156 12.867188 15.054688 12.867188 C 15.460938 12.867188 15.859375 12.84375 16.261719 12.800781 C 16.28125 12.796875 16.304688 12.796875 16.324219 12.792969 C 17.066406 12.722656 17.695312 12.359375 18.175781 11.796875 C 18.707031 11.152344 19.09375 10.335938 19.273438 9.515625 C 19.320312 9.304688 19.320312 9.304688 19.421875 9.234375 C 19.492188 9.207031 19.542969 9.207031 19.621094 9.21875 C 19.703125 9.253906 19.753906 9.300781 19.800781 9.378906 C 19.820312 9.53125 19.78125 9.675781 19.742188 9.820312 C 19.730469 9.855469 19.730469 9.855469 19.722656 9.886719 C 19.472656 10.765625 19.082031 11.578125 18.464844 12.253906 C 18.425781 12.292969 18.386719 12.335938 18.351562 12.382812 C 17.738281 13.078125 16.839844 13.304688 15.949219 13.371094 C 15.683594 13.386719 15.414062 13.386719 15.144531 13.386719 C 15.0625 13.386719 14.976562 13.386719 14.894531 13.386719 C 14.554688 13.386719 14.21875 13.382812 13.878906 13.339844 C 13.855469 13.335938 13.828125 13.332031 13.800781 13.332031 C 12.945312 13.226562 12.253906 12.722656 11.722656 12.058594 C 11.601562 11.898438 11.484375 11.734375 11.378906 11.558594 C 11.375 11.570312 11.367188 11.582031 11.363281 11.589844 C 10.90625 12.332031 10.269531 13.03125 9.398438 13.261719 C 9.328125 13.277344 9.257812 13.292969 9.1875 13.304688 C 9.171875 13.308594 9.152344 13.3125 9.136719 13.3125 C 9.078125 13.324219 9.019531 13.332031 8.960938 13.339844 C 8.9375 13.34375 8.9375 13.34375 8.917969 13.34375 C 8.566406 13.386719 8.214844 13.386719 7.863281 13.382812 C 7.800781 13.382812 7.738281 13.382812 7.675781 13.382812 C 6.449219 13.382812 5.339844 13.257812 4.421875 12.359375 C 4.371094 12.308594 4.324219 12.253906 4.28125 12.199219 C 4.261719 12.175781 4.242188 12.152344 4.222656 12.128906 C 4.074219 11.953125 3.941406 11.773438 3.820312 11.578125 C 3.8125 11.566406 3.804688 11.554688 3.796875 11.542969 C 3.742188 11.457031 3.691406 11.367188 3.640625 11.28125 C 3.632812 11.269531 3.625 11.257812 3.621094 11.246094 C 3.433594 10.921875 3.300781 10.578125 3.183594 10.222656 C 3.179688 10.210938 3.175781 10.195312 3.167969 10.183594 C 2.945312 9.515625 2.945312 9.515625 3.023438 9.320312 C 3.109375 9.222656 3.195312 9.203125 3.320312 9.21875 Z M 3.320312 9.21875 "/>
<path style=" stroke:none;fill-rule:nonzero;fill:rgb(1.176471%,1.176471%,1.176471%);fill-opacity:1;" d="M 6.621094 18.019531 C 6.730469 18.0625 6.789062 18.128906 6.867188 18.214844 C 6.980469 18.34375 7.105469 18.457031 7.242188 18.5625 C 7.375 18.667969 7.492188 18.785156 7.566406 18.941406 C 7.574219 18.957031 7.585938 18.976562 7.59375 18.996094 C 7.851562 19.636719 7.660156 20.371094 7.660156 21.058594 C 10.121094 21.058594 12.582031 21.058594 15.121094 21.058594 C 15.121094 20.472656 15.121094 19.886719 15.121094 19.28125 C 15.222656 18.921875 15.355469 18.707031 15.644531 18.484375 C 15.792969 18.367188 15.933594 18.238281 16.050781 18.089844 C 16.105469 18.035156 16.152344 18.019531 16.226562 18.011719 C 16.328125 18.023438 16.382812 18.066406 16.457031 18.132812 C 16.492188 18.207031 16.492188 18.28125 16.480469 18.359375 C 16.359375 18.605469 16.082031 18.835938 15.859375 18.992188 C 15.75 19.074219 15.6875 19.1875 15.660156 19.320312 C 15.65625 19.347656 15.65625 19.378906 15.65625 19.40625 C 15.65625 19.433594 15.65625 19.433594 15.65625 19.460938 C 15.65625 19.480469 15.65625 19.5 15.65625 19.519531 C 15.65625 19.539062 15.65625 19.558594 15.65625 19.578125 C 15.65625 19.625 15.65625 19.667969 15.65625 19.710938 C 15.65625 19.78125 15.65625 19.847656 15.65625 19.917969 C 15.652344 20.113281 15.652344 20.3125 15.652344 20.507812 C 15.652344 20.628906 15.652344 20.75 15.648438 20.867188 C 15.648438 20.914062 15.648438 20.960938 15.648438 21.007812 C 15.648438 21.070312 15.648438 21.136719 15.648438 21.199219 C 15.648438 21.21875 15.648438 21.238281 15.648438 21.257812 C 15.644531 21.425781 15.644531 21.425781 15.578125 21.5 C 15.480469 21.566406 15.417969 21.589844 15.296875 21.589844 C 15.285156 21.589844 15.269531 21.589844 15.253906 21.589844 C 15.210938 21.589844 15.164062 21.589844 15.117188 21.589844 C 15.085938 21.589844 15.050781 21.589844 15.015625 21.589844 C 14.925781 21.589844 14.835938 21.589844 14.742188 21.589844 C 14.644531 21.589844 14.546875 21.589844 14.445312 21.589844 C 14.253906 21.589844 14.058594 21.589844 13.867188 21.589844 C 13.707031 21.589844 13.550781 21.589844 13.394531 21.589844 C 13.371094 21.589844 13.351562 21.589844 13.328125 21.589844 C 13.28125 21.589844 13.234375 21.589844 13.191406 21.589844 C 12.765625 21.589844 12.339844 21.589844 11.910156 21.589844 C 11.546875 21.589844 11.179688 21.589844 10.816406 21.589844 C 10.390625 21.589844 9.964844 21.589844 9.542969 21.589844 C 9.496094 21.589844 9.449219 21.589844 9.40625 21.589844 C 9.382812 21.589844 9.359375 21.589844 9.339844 21.589844 C 9.179688 21.589844 9.023438 21.589844 8.867188 21.589844 C 8.675781 21.589844 8.484375 21.589844 8.292969 21.589844 C 8.195312 21.589844 8.097656 21.589844 8 21.589844 C 7.910156 21.589844 7.820312 21.589844 7.730469 21.589844 C 7.699219 21.589844 7.667969 21.589844 7.636719 21.589844 C 7.589844 21.589844 7.546875 21.589844 7.503906 21.589844 C 7.464844 21.589844 7.464844 21.589844 7.429688 21.589844 C 7.339844 21.578125 7.292969 21.550781 7.21875 21.5 C 7.148438 21.398438 7.152344 21.300781 7.152344 21.179688 C 7.152344 21.160156 7.152344 21.140625 7.152344 21.117188 C 7.152344 21.074219 7.152344 21.03125 7.152344 20.988281 C 7.152344 20.921875 7.152344 20.851562 7.152344 20.785156 C 7.152344 20.589844 7.152344 20.394531 7.15625 20.199219 C 7.15625 20.082031 7.15625 19.960938 7.152344 19.84375 C 7.152344 19.796875 7.152344 19.753906 7.15625 19.707031 C 7.160156 19.335938 7.160156 19.335938 6.988281 19.023438 C 6.957031 18.992188 6.925781 18.96875 6.890625 18.945312 C 6.871094 18.925781 6.847656 18.90625 6.824219 18.890625 C 6.8125 18.878906 6.800781 18.871094 6.789062 18.863281 C 6.34375 18.515625 6.34375 18.515625 6.3125 18.320312 C 6.308594 18.226562 6.316406 18.171875 6.378906 18.101562 C 6.453125 18.019531 6.507812 18.011719 6.621094 18.019531 Z M 6.621094 18.019531 "/>
<path style=" stroke:none;fill-rule:nonzero;fill:rgb(0.784314%,0.784314%,0.784314%);fill-opacity:1;" d="M 19.640625 15.199219 C 19.714844 15.238281 19.753906 15.269531 19.800781 15.339844 C 19.820312 15.4375 19.820312 15.523438 19.769531 15.613281 C 19.722656 15.671875 19.671875 15.726562 19.621094 15.78125 C 19.609375 15.792969 19.597656 15.800781 19.585938 15.8125 C 19.324219 16.089844 19.019531 16.355469 18.679688 16.539062 C 18.667969 16.539062 18.652344 16.539062 18.640625 16.539062 C 18.640625 16.554688 18.636719 16.570312 18.636719 16.585938 C 18.625 16.753906 18.605469 16.917969 18.582031 17.082031 C 18.539062 17.429688 18.503906 17.78125 18.472656 18.128906 C 18.464844 18.230469 18.453125 18.335938 18.445312 18.4375 C 18.417969 18.707031 18.398438 18.972656 18.382812 19.238281 C 18.382812 19.285156 18.378906 19.328125 18.378906 19.371094 C 18.375 19.402344 18.375 19.433594 18.371094 19.460938 C 18.371094 19.484375 18.371094 19.484375 18.371094 19.507812 C 18.367188 19.582031 18.363281 19.65625 18.359375 19.730469 C 18.332031 20.300781 18.25 20.789062 17.816406 21.203125 C 17.511719 21.460938 17.15625 21.5625 16.765625 21.566406 C 16.734375 21.566406 16.707031 21.566406 16.675781 21.566406 C 16.632812 21.566406 16.589844 21.566406 16.546875 21.570312 C 16.507812 21.570312 16.507812 21.570312 16.46875 21.570312 C 16.386719 21.558594 16.355469 21.535156 16.300781 21.480469 C 16.242188 21.394531 16.242188 21.300781 16.261719 21.199219 C 16.308594 21.136719 16.355469 21.105469 16.421875 21.058594 C 16.46875 21.054688 16.46875 21.054688 16.523438 21.054688 C 16.554688 21.054688 16.554688 21.054688 16.585938 21.054688 C 16.609375 21.054688 16.632812 21.054688 16.65625 21.050781 C 16.933594 21.042969 17.160156 21.015625 17.394531 20.851562 C 17.441406 20.820312 17.441406 20.820312 17.484375 20.796875 C 17.53125 20.773438 17.539062 20.746094 17.558594 20.699219 C 17.578125 20.675781 17.578125 20.675781 17.597656 20.65625 C 17.769531 20.433594 17.800781 20.1875 17.808594 19.917969 C 17.820312 19.632812 17.839844 19.351562 17.863281 19.066406 C 17.863281 19.023438 17.867188 18.980469 17.871094 18.9375 C 17.914062 18.390625 17.960938 17.84375 18.019531 17.300781 C 18.023438 17.277344 18.023438 17.253906 18.027344 17.230469 C 18.042969 17.09375 18.058594 16.957031 18.074219 16.816406 C 18.078125 16.773438 18.082031 16.730469 18.089844 16.6875 C 18.09375 16.628906 18.101562 16.570312 18.109375 16.507812 C 18.113281 16.492188 18.113281 16.472656 18.113281 16.457031 C 18.128906 16.332031 18.160156 16.25 18.257812 16.167969 C 18.269531 16.160156 18.285156 16.152344 18.296875 16.140625 C 18.316406 16.132812 18.332031 16.121094 18.347656 16.113281 C 18.382812 16.089844 18.421875 16.066406 18.460938 16.042969 C 18.792969 15.84375 19.078125 15.597656 19.335938 15.308594 C 19.433594 15.203125 19.496094 15.183594 19.640625 15.199219 Z M 19.640625 15.199219 "/>
<path style=" stroke:none;fill-rule:nonzero;fill:rgb(0.784314%,0.784314%,0.784314%);fill-opacity:1;" d="M 3.359375 15.21875 C 3.476562 15.289062 3.5625 15.40625 3.652344 15.507812 C 3.878906 15.753906 4.152344 15.949219 4.449219 16.109375 C 4.542969 16.164062 4.609375 16.21875 4.660156 16.320312 C 4.667969 16.375 4.675781 16.429688 4.683594 16.488281 C 4.683594 16.503906 4.6875 16.523438 4.691406 16.542969 C 4.699219 16.601562 4.707031 16.664062 4.710938 16.722656 C 4.714844 16.742188 4.71875 16.765625 4.71875 16.785156 C 4.832031 17.722656 4.921875 18.65625 4.976562 19.597656 C 4.996094 20.167969 4.996094 20.167969 5.21875 20.679688 C 5.230469 20.695312 5.242188 20.714844 5.253906 20.730469 C 5.445312 20.933594 5.707031 21.039062 5.980469 21.046875 C 6.046875 21.046875 6.113281 21.046875 6.179688 21.046875 C 6.308594 21.050781 6.394531 21.058594 6.5 21.140625 C 6.558594 21.230469 6.554688 21.316406 6.539062 21.421875 C 6.507812 21.484375 6.464844 21.527344 6.398438 21.558594 C 6.3125 21.566406 6.222656 21.566406 6.132812 21.566406 C 6.101562 21.566406 6.070312 21.566406 6.042969 21.566406 C 5.613281 21.574219 5.242188 21.445312 4.929688 21.148438 C 4.804688 21.027344 4.710938 20.898438 4.632812 20.746094 C 4.628906 20.734375 4.621094 20.722656 4.613281 20.707031 C 4.503906 20.480469 4.46875 20.238281 4.457031 19.988281 C 4.457031 19.960938 4.453125 19.933594 4.453125 19.90625 C 4.449219 19.847656 4.445312 19.792969 4.441406 19.734375 C 4.4375 19.644531 4.433594 19.558594 4.429688 19.46875 C 4.425781 19.445312 4.425781 19.445312 4.425781 19.421875 C 4.425781 19.394531 4.421875 19.363281 4.421875 19.335938 C 4.417969 19.289062 4.417969 19.246094 4.414062 19.203125 C 4.402344 18.980469 4.386719 18.761719 4.367188 18.539062 C 4.367188 18.527344 4.367188 18.511719 4.363281 18.496094 C 4.347656 18.292969 4.328125 18.09375 4.300781 17.890625 C 4.28125 17.722656 4.265625 17.554688 4.25 17.386719 C 4.230469 17.179688 4.207031 16.976562 4.179688 16.773438 C 4.167969 16.695312 4.15625 16.621094 4.160156 16.539062 C 4.144531 16.535156 4.132812 16.53125 4.117188 16.527344 C 4.046875 16.492188 3.984375 16.453125 3.917969 16.410156 C 3.902344 16.398438 3.890625 16.390625 3.878906 16.382812 C 3.757812 16.300781 3.648438 16.214844 3.539062 16.121094 C 3.523438 16.105469 3.507812 16.089844 3.488281 16.078125 C 3 15.644531 3 15.644531 2.984375 15.457031 C 3.003906 15.359375 3.046875 15.304688 3.121094 15.238281 C 3.195312 15.203125 3.277344 15.207031 3.359375 15.21875 Z M 3.359375 15.21875 "/>
<path style=" stroke:none;fill-rule:nonzero;fill:rgb(0.784314%,0.784314%,0.784314%);fill-opacity:1;" d="M 7.640625 2.539062 C 7.695312 2.597656 7.710938 2.636719 7.710938 2.71875 C 7.707031 2.789062 7.699219 2.832031 7.65625 2.890625 C 7.574219 2.960938 7.523438 2.984375 7.417969 2.988281 C 6.910156 3.007812 6.414062 3.113281 5.960938 3.339844 C 5.945312 3.347656 5.929688 3.355469 5.914062 3.363281 C 5.570312 3.527344 5.261719 3.742188 4.980469 4 C 4.96875 4.007812 4.960938 4.019531 4.949219 4.027344 C 4.75 4.210938 4.582031 4.421875 4.4375 4.648438 C 4.390625 4.714844 4.355469 4.734375 4.28125 4.761719 C 4.191406 4.769531 4.105469 4.761719 4.019531 4.75 C 3.925781 4.738281 3.832031 4.738281 3.738281 4.734375 C 3.714844 4.734375 3.714844 4.734375 3.6875 4.734375 C 3.652344 4.734375 3.617188 4.734375 3.582031 4.734375 C 3.53125 4.734375 3.476562 4.734375 3.421875 4.734375 C 3.207031 4.730469 3.011719 4.75 2.800781 4.800781 C 2.785156 4.804688 2.773438 4.804688 2.761719 4.808594 C 2.378906 4.898438 2.039062 5.066406 1.738281 5.320312 C 1.71875 5.335938 1.699219 5.351562 1.679688 5.367188 C 1.574219 5.464844 1.484375 5.578125 1.398438 5.695312 C 1.347656 5.753906 1.3125 5.777344 1.238281 5.785156 C 1.140625 5.785156 1.074219 5.785156 1 5.71875 C 0.949219 5.648438 0.925781 5.574219 0.929688 5.484375 C 0.957031 5.382812 1.03125 5.300781 1.101562 5.21875 C 1.113281 5.203125 1.128906 5.1875 1.144531 5.167969 C 1.570312 4.675781 2.160156 4.363281 2.800781 4.238281 C 2.816406 4.234375 2.835938 4.234375 2.855469 4.230469 C 3.011719 4.199219 3.164062 4.199219 3.324219 4.203125 C 3.347656 4.203125 3.367188 4.203125 3.390625 4.207031 C 3.484375 4.207031 3.574219 4.210938 3.664062 4.214844 C 3.929688 4.242188 3.929688 4.242188 4.167969 4.152344 C 4.214844 4.097656 4.246094 4.042969 4.28125 3.980469 C 4.308594 3.945312 4.335938 3.914062 4.363281 3.882812 C 4.378906 3.867188 4.394531 3.851562 4.410156 3.835938 C 4.425781 3.816406 4.441406 3.796875 4.460938 3.78125 C 4.46875 3.769531 4.480469 3.757812 4.488281 3.75 C 4.746094 3.476562 5.039062 3.253906 5.359375 3.058594 C 5.390625 3.039062 5.390625 3.039062 5.425781 3.019531 C 5.867188 2.753906 7.164062 2.15625 7.640625 2.539062 Z M 7.640625 2.539062 "/>
<path style=" stroke:none;fill-rule:nonzero;fill:rgb(0.784314%,0.784314%,0.784314%);fill-opacity:1;" d="M 15.351562 2.472656 C 15.386719 2.472656 15.386719 2.472656 15.417969 2.46875 C 15.453125 2.472656 15.453125 2.472656 15.488281 2.472656 C 15.527344 2.472656 15.527344 2.472656 15.5625 2.472656 C 15.777344 2.476562 15.972656 2.507812 16.179688 2.558594 C 16.21875 2.570312 16.21875 2.570312 16.257812 2.578125 C 17.226562 2.820312 18.082031 3.382812 18.679688 4.179688 C 18.703125 4.210938 18.703125 4.210938 18.78125 4.203125 C 18.816406 4.199219 18.851562 4.199219 18.886719 4.199219 C 18.925781 4.199219 18.964844 4.199219 19.003906 4.199219 C 19.035156 4.199219 19.035156 4.199219 19.070312 4.199219 C 19.746094 4.191406 19.746094 4.191406 20.078125 4.261719 C 20.09375 4.261719 20.109375 4.265625 20.121094 4.269531 C 20.824219 4.398438 21.417969 4.835938 21.839844 5.398438 C 21.871094 5.464844 21.867188 5.53125 21.859375 5.601562 C 21.824219 5.683594 21.777344 5.734375 21.699219 5.78125 C 21.609375 5.796875 21.542969 5.789062 21.457031 5.753906 C 21.355469 5.660156 21.277344 5.546875 21.195312 5.4375 C 20.757812 4.960938 20.085938 4.75 19.457031 4.714844 C 19.214844 4.710938 18.976562 4.71875 18.738281 4.75 C 18.535156 4.773438 18.535156 4.773438 18.445312 4.738281 C 18.386719 4.691406 18.347656 4.632812 18.308594 4.574219 C 17.742188 3.753906 16.863281 3.214844 15.890625 3.03125 C 15.746094 3.007812 15.601562 3 15.457031 2.996094 C 15.332031 2.988281 15.253906 2.984375 15.160156 2.898438 C 15.113281 2.839844 15.101562 2.808594 15.09375 2.730469 C 15.101562 2.636719 15.125 2.570312 15.195312 2.507812 C 15.25 2.472656 15.285156 2.472656 15.351562 2.472656 Z M 15.351562 2.472656 "/>
<path style=" stroke:none;fill-rule:nonzero;fill:rgb(0.784314%,0.784314%,0.784314%);fill-opacity:1;" d="M 12.214844 14.386719 C 12.351562 14.492188 12.46875 14.605469 12.578125 14.738281 C 12.824219 15.023438 13.121094 15.273438 13.5 15.339844 C 13.601562 15.359375 13.667969 15.382812 13.734375 15.464844 C 13.777344 15.558594 13.769531 15.628906 13.734375 15.726562 C 13.6875 15.800781 13.644531 15.832031 13.558594 15.859375 C 13.207031 15.894531 12.828125 15.671875 12.558594 15.460938 C 12.429688 15.347656 12.304688 15.230469 12.195312 15.101562 C 12 14.875 11.75 14.648438 11.445312 14.613281 C 11.179688 14.601562 10.953125 14.71875 10.761719 14.894531 C 10.636719 15.011719 10.519531 15.136719 10.40625 15.265625 C 10.136719 15.574219 9.710938 15.820312 9.296875 15.863281 C 9.195312 15.867188 9.140625 15.847656 9.058594 15.78125 C 9.007812 15.699219 8.984375 15.636719 9 15.539062 C 9.050781 15.445312 9.105469 15.390625 9.199219 15.339844 C 9.246094 15.328125 9.296875 15.320312 9.34375 15.3125 C 9.675781 15.238281 9.945312 15.015625 10.160156 14.765625 C 10.71875 14.132812 11.480469 13.839844 12.214844 14.386719 Z M 12.214844 14.386719 "/>
<path style=" stroke:none;fill-rule:nonzero;fill:rgb(0.784314%,0.784314%,0.784314%);fill-opacity:1;" d="M 9.816406 0.980469 C 9.945312 1.078125 9.964844 1.199219 9.992188 1.351562 C 10.171875 2.273438 10.6875 3.261719 11.46875 3.808594 C 11.539062 3.851562 11.578125 3.867188 11.660156 3.859375 C 11.78125 3.8125 11.875 3.734375 11.96875 3.648438 C 12.015625 3.605469 12.039062 3.601562 12.105469 3.59375 C 12.207031 3.601562 12.265625 3.640625 12.332031 3.71875 C 12.382812 3.792969 12.378906 3.871094 12.359375 3.960938 C 12.320312 4.023438 12.273438 4.070312 12.21875 4.121094 C 12.203125 4.136719 12.203125 4.136719 12.1875 4.152344 C 12 4.328125 11.769531 4.394531 11.519531 4.386719 C 11.160156 4.359375 10.785156 3.949219 10.558594 3.691406 C 10.511719 3.636719 10.464844 3.578125 10.421875 3.519531 C 10.410156 3.507812 10.402344 3.5 10.394531 3.488281 C 9.980469 2.953125 9.6875 2.3125 9.519531 1.660156 C 9.515625 1.644531 9.511719 1.632812 9.507812 1.617188 C 9.398438 1.195312 9.398438 1.195312 9.464844 1.078125 C 9.550781 0.96875 9.683594 0.910156 9.816406 0.980469 Z M 9.816406 0.980469 "/>
<path style=" stroke:none;fill-rule:nonzero;fill:rgb(1.176471%,1.176471%,1.176471%);fill-opacity:1;" d="M 2.839844 13.140625 C 2.929688 13.1875 3 13.246094 3.039062 13.339844 C 3.050781 13.417969 3.050781 13.496094 3.050781 13.578125 C 3.050781 13.601562 3.050781 13.625 3.050781 13.648438 C 3.03125 14.449219 2.671875 15.15625 2.160156 15.761719 C 2.144531 15.78125 2.128906 15.800781 2.109375 15.820312 C 1.917969 16.050781 1.714844 16.269531 1.5 16.476562 C 1.480469 16.492188 1.480469 16.492188 1.460938 16.511719 C 1.363281 16.605469 1.28125 16.652344 1.140625 16.648438 C 1.066406 16.632812 1.03125 16.59375 0.980469 16.539062 C 0.933594 16.460938 0.925781 16.390625 0.941406 16.300781 C 1.050781 16.136719 1.21875 16 1.359375 15.863281 C 1.503906 15.722656 1.636719 15.578125 1.761719 15.421875 C 1.777344 15.398438 1.796875 15.375 1.8125 15.351562 C 2.25 14.800781 2.507812 14.230469 2.507812 13.519531 C 2.511719 13.292969 2.511719 13.292969 2.601562 13.199219 C 2.679688 13.136719 2.742188 13.128906 2.839844 13.140625 Z M 2.839844 13.140625 "/>
<path style=" stroke:none;fill-rule:nonzero;fill:rgb(1.176471%,1.176471%,1.176471%);fill-opacity:1;" d="M 20.101562 13.140625 C 20.1875 13.1875 20.234375 13.230469 20.28125 13.320312 C 20.289062 13.371094 20.289062 13.371094 20.289062 13.429688 C 20.289062 13.460938 20.289062 13.460938 20.289062 13.492188 C 20.289062 13.511719 20.289062 13.535156 20.292969 13.558594 C 20.292969 13.601562 20.292969 13.648438 20.296875 13.695312 C 20.296875 13.714844 20.296875 13.738281 20.296875 13.761719 C 20.3125 14.136719 20.4375 14.472656 20.621094 14.800781 C 20.625 14.8125 20.632812 14.824219 20.640625 14.835938 C 20.882812 15.277344 21.226562 15.65625 21.582031 16.003906 C 21.621094 16.042969 21.65625 16.078125 21.695312 16.113281 C 21.714844 16.136719 21.738281 16.15625 21.761719 16.179688 C 21.832031 16.25 21.863281 16.285156 21.867188 16.382812 C 21.867188 16.480469 21.835938 16.527344 21.773438 16.59375 C 21.710938 16.644531 21.640625 16.648438 21.5625 16.648438 C 21.429688 16.625 21.308594 16.480469 21.214844 16.390625 C 21.203125 16.375 21.1875 16.363281 21.175781 16.351562 C 21.050781 16.234375 20.933594 16.109375 20.820312 15.980469 C 20.804688 15.964844 20.804688 15.964844 20.792969 15.949219 C 20.558594 15.6875 20.351562 15.402344 20.179688 15.097656 C 20.167969 15.070312 20.152344 15.046875 20.140625 15.023438 C 19.945312 14.695312 19.824219 14.339844 19.78125 13.960938 C 19.777344 13.945312 19.777344 13.933594 19.773438 13.917969 C 19.757812 13.796875 19.753906 13.675781 19.753906 13.554688 C 19.753906 13.535156 19.753906 13.519531 19.753906 13.5 C 19.75 13.382812 19.761719 13.3125 19.839844 13.21875 C 19.925781 13.148438 19.988281 13.125 20.101562 13.140625 Z M 20.101562 13.140625 "/>
<path style=" stroke:none;fill-rule:nonzero;fill:rgb(0.784314%,0.784314%,0.784314%);fill-opacity:1;" d="M 15.191406 5.617188 C 15.242188 5.660156 15.277344 5.695312 15.285156 5.761719 C 15.285156 5.878906 15.269531 5.941406 15.195312 6.03125 C 15.152344 6.066406 15.117188 6.078125 15.0625 6.089844 C 15.035156 6.097656 15.035156 6.097656 15.003906 6.105469 C 14.984375 6.113281 14.964844 6.117188 14.941406 6.121094 C 14.320312 6.296875 13.734375 6.609375 13.339844 7.132812 C 13.289062 7.191406 13.253906 7.214844 13.175781 7.226562 C 13.164062 7.222656 13.148438 7.222656 13.132812 7.222656 C 13.109375 7.222656 13.109375 7.222656 13.089844 7.222656 C 13.039062 7.21875 13.039062 7.21875 12.988281 7.210938 C 12.890625 7.195312 12.796875 7.195312 12.703125 7.199219 C 12.683594 7.199219 12.664062 7.199219 12.644531 7.195312 C 12.539062 7.199219 12.441406 7.203125 12.339844 7.21875 C 12.171875 7.238281 12.171875 7.238281 12.101562 7.199219 C 12.050781 7.160156 12.015625 7.113281 11.980469 7.058594 C 11.96875 6.964844 11.96875 6.917969 12.015625 6.832031 C 12.121094 6.707031 12.246094 6.683594 12.402344 6.664062 C 12.546875 6.652344 12.695312 6.660156 12.839844 6.667969 C 12.96875 6.675781 12.96875 6.675781 13.082031 6.628906 C 13.113281 6.59375 13.136719 6.558594 13.160156 6.519531 C 13.210938 6.46875 13.265625 6.425781 13.320312 6.378906 C 13.335938 6.363281 13.355469 6.351562 13.371094 6.335938 C 13.746094 6.007812 14.210938 5.789062 14.679688 5.640625 C 14.699219 5.632812 14.722656 5.625 14.742188 5.621094 C 14.894531 5.574219 15.046875 5.542969 15.191406 5.617188 Z M 15.191406 5.617188 "/>
<path style=" stroke:none;fill-rule:nonzero;fill:rgb(1.176471%,1.176471%,1.176471%);fill-opacity:1;" d="M 7.898438 5.578125 C 8 5.601562 8.09375 5.632812 8.1875 5.667969 C 8.207031 5.675781 8.207031 5.675781 8.226562 5.679688 C 8.734375 5.855469 9.230469 6.105469 9.601562 6.5 C 9.617188 6.519531 9.636719 6.535156 9.65625 6.554688 C 9.699219 6.601562 9.699219 6.601562 9.726562 6.632812 C 9.777344 6.671875 9.8125 6.664062 9.878906 6.664062 C 9.902344 6.664062 9.925781 6.664062 9.949219 6.664062 C 9.984375 6.660156 9.984375 6.660156 10.023438 6.660156 C 10.558594 6.652344 10.558594 6.652344 10.738281 6.78125 C 10.804688 6.855469 10.835938 6.917969 10.832031 7.019531 C 10.8125 7.09375 10.757812 7.148438 10.699219 7.199219 C 10.605469 7.230469 10.515625 7.226562 10.417969 7.210938 C 10.320312 7.199219 10.226562 7.195312 10.132812 7.199219 C 10.113281 7.199219 10.09375 7.199219 10.078125 7.195312 C 9.96875 7.199219 9.867188 7.203125 9.761719 7.21875 C 9.65625 7.230469 9.585938 7.234375 9.496094 7.179688 C 9.4375 7.121094 9.390625 7.054688 9.339844 6.988281 C 8.960938 6.515625 8.355469 6.25 7.785156 6.105469 C 7.675781 6.078125 7.609375 6.050781 7.539062 5.960938 C 7.511719 5.878906 7.507812 5.804688 7.519531 5.71875 C 7.617188 5.5625 7.730469 5.5625 7.898438 5.578125 Z M 7.898438 5.578125 "/>
<path style=" stroke:none;fill-rule:nonzero;fill:rgb(0%,0%,0%);fill-opacity:1;" d="M 14.199219 0.621094 C 14.28125 0.65625 14.328125 0.707031 14.378906 0.78125 C 14.390625 0.839844 14.390625 0.839844 14.390625 0.90625 C 14.390625 0.929688 14.390625 0.957031 14.390625 0.984375 C 14.390625 1.011719 14.390625 1.039062 14.390625 1.066406 C 14.390625 1.097656 14.390625 1.125 14.390625 1.15625 C 14.390625 1.234375 14.390625 1.316406 14.390625 1.398438 C 14.390625 1.480469 14.390625 1.566406 14.390625 1.648438 C 14.390625 1.789062 14.390625 1.929688 14.390625 2.074219 C 14.390625 2.234375 14.390625 2.398438 14.390625 2.5625 C 14.390625 2.71875 14.390625 2.875 14.390625 3.03125 C 14.390625 3.097656 14.390625 3.167969 14.390625 3.234375 C 14.390625 3.3125 14.390625 3.390625 14.386719 3.46875 C 14.386719 3.496094 14.386719 3.527344 14.386719 3.554688 C 14.386719 3.59375 14.386719 3.632812 14.386719 3.675781 C 14.386719 3.695312 14.386719 3.71875 14.386719 3.742188 C 14.375 3.832031 14.332031 3.902344 14.261719 3.960938 C 14.183594 3.984375 14.117188 3.996094 14.039062 3.980469 C 13.972656 3.9375 13.914062 3.890625 13.878906 3.820312 C 13.878906 3.78125 13.878906 3.742188 13.875 3.699219 C 13.875 3.675781 13.875 3.648438 13.875 3.625 C 13.875 3.59375 13.875 3.566406 13.875 3.539062 C 13.875 3.507812 13.875 3.480469 13.875 3.449219 C 13.875 3.351562 13.875 3.253906 13.875 3.15625 C 13.875 3.140625 13.875 3.121094 13.875 3.105469 C 13.871094 2.949219 13.871094 2.792969 13.871094 2.636719 C 13.871094 2.433594 13.871094 2.234375 13.871094 2.03125 C 13.867188 1.890625 13.867188 1.75 13.867188 1.609375 C 13.867188 1.523438 13.867188 1.441406 13.867188 1.355469 C 13.867188 1.277344 13.867188 1.199219 13.867188 1.117188 C 13.867188 1.089844 13.867188 1.058594 13.867188 1.03125 C 13.863281 0.785156 13.863281 0.785156 13.9375 0.691406 C 14.019531 0.617188 14.089844 0.609375 14.199219 0.621094 Z M 14.199219 0.621094 "/>
<path style=" stroke:none;fill-rule:nonzero;fill:rgb(0%,0%,0%);fill-opacity:1;" d="M 8.738281 0.621094 C 8.824219 0.65625 8.871094 0.707031 8.921875 0.78125 C 8.929688 0.839844 8.929688 0.839844 8.929688 0.90625 C 8.929688 0.929688 8.929688 0.957031 8.929688 0.984375 C 8.929688 1.011719 8.929688 1.039062 8.929688 1.066406 C 8.929688 1.097656 8.929688 1.125 8.929688 1.15625 C 8.929688 1.234375 8.929688 1.316406 8.929688 1.398438 C 8.929688 1.480469 8.929688 1.566406 8.929688 1.648438 C 8.929688 1.789062 8.929688 1.929688 8.929688 2.074219 C 8.929688 2.234375 8.929688 2.398438 8.929688 2.5625 C 8.929688 2.71875 8.929688 2.875 8.929688 3.03125 C 8.929688 3.097656 8.929688 3.167969 8.929688 3.234375 C 8.929688 3.3125 8.929688 3.390625 8.929688 3.46875 C 8.929688 3.496094 8.929688 3.527344 8.929688 3.554688 C 8.929688 3.59375 8.929688 3.632812 8.929688 3.675781 C 8.925781 3.695312 8.925781 3.71875 8.925781 3.742188 C 8.914062 3.832031 8.871094 3.902344 8.800781 3.960938 C 8.726562 3.984375 8.65625 3.996094 8.578125 3.980469 C 8.511719 3.9375 8.457031 3.890625 8.421875 3.820312 C 8.417969 3.78125 8.417969 3.742188 8.417969 3.699219 C 8.417969 3.675781 8.417969 3.648438 8.417969 3.625 C 8.417969 3.59375 8.414062 3.566406 8.414062 3.539062 C 8.414062 3.507812 8.414062 3.480469 8.414062 3.449219 C 8.414062 3.351562 8.414062 3.253906 8.414062 3.15625 C 8.414062 3.140625 8.414062 3.121094 8.414062 3.105469 C 8.414062 2.949219 8.414062 2.792969 8.414062 2.636719 C 8.410156 2.433594 8.410156 2.234375 8.410156 2.03125 C 8.410156 1.890625 8.40625 1.75 8.40625 1.609375 C 8.40625 1.523438 8.40625 1.441406 8.40625 1.355469 C 8.40625 1.277344 8.40625 1.199219 8.40625 1.117188 C 8.40625 1.089844 8.40625 1.058594 8.40625 1.03125 C 8.402344 0.785156 8.402344 0.785156 8.476562 0.691406 C 8.558594 0.617188 8.632812 0.609375 8.738281 0.621094 Z M 8.738281 0.621094 "/>
<path style=" stroke:none;fill-rule:nonzero;fill:rgb(1.176471%,1.176471%,1.176471%);fill-opacity:1;" d="M 17.9375 14.496094 C 18.019531 14.535156 18.066406 14.578125 18.101562 14.660156 C 18.121094 14.792969 18.070312 14.875 18 14.980469 C 17.59375 15.523438 16.996094 15.835938 16.335938 15.949219 C 16.167969 15.972656 16.003906 15.984375 15.835938 15.988281 C 15.816406 15.988281 15.796875 15.988281 15.777344 15.988281 C 15.6875 15.992188 15.621094 15.992188 15.546875 15.933594 C 15.484375 15.863281 15.464844 15.816406 15.453125 15.722656 C 15.460938 15.640625 15.488281 15.601562 15.539062 15.539062 C 15.652344 15.460938 15.734375 15.449219 15.867188 15.449219 C 16.0625 15.445312 16.25 15.417969 16.441406 15.378906 C 16.460938 15.375 16.480469 15.371094 16.5 15.367188 C 16.9375 15.261719 17.359375 15.003906 17.605469 14.621094 C 17.683594 14.496094 17.785156 14.4375 17.9375 14.496094 Z M 17.9375 14.496094 "/>
<path style=" stroke:none;fill-rule:nonzero;fill:rgb(1.176471%,1.176471%,1.176471%);fill-opacity:1;" d="M 5.085938 14.503906 C 5.171875 14.554688 5.21875 14.640625 5.273438 14.722656 C 5.511719 15.078125 5.953125 15.300781 6.363281 15.390625 C 6.5625 15.429688 6.761719 15.449219 6.964844 15.449219 C 7.097656 15.453125 7.179688 15.480469 7.277344 15.574219 C 7.332031 15.660156 7.332031 15.699219 7.320312 15.800781 C 7.289062 15.863281 7.253906 15.914062 7.199219 15.960938 C 6.742188 16.113281 6.089844 15.90625 5.671875 15.703125 C 5.296875 15.507812 4.855469 15.214844 4.699219 14.800781 C 4.6875 14.714844 4.695312 14.671875 4.734375 14.59375 C 4.835938 14.472656 4.9375 14.449219 5.085938 14.503906 Z M 5.085938 14.503906 "/>
<path style=" stroke:none;fill-rule:nonzero;fill:rgb(1.176471%,1.176471%,1.176471%);fill-opacity:1;" d="M 10.976562 19.765625 C 11.089844 19.859375 11.089844 19.859375 11.109375 19.941406 C 11.117188 20.027344 11.105469 20.078125 11.054688 20.148438 C 10.96875 20.242188 10.863281 20.269531 10.746094 20.304688 C 10.726562 20.3125 10.707031 20.320312 10.683594 20.328125 C 10.453125 20.398438 10.238281 20.425781 9.996094 20.425781 C 9.953125 20.425781 9.910156 20.425781 9.867188 20.425781 C 9.695312 20.425781 9.53125 20.414062 9.359375 20.378906 C 9.34375 20.378906 9.328125 20.375 9.3125 20.371094 C 9.042969 20.320312 9.042969 20.320312 8.960938 20.238281 C 8.910156 20.164062 8.902344 20.09375 8.910156 20.007812 C 8.925781 19.929688 8.960938 19.894531 9.019531 19.839844 C 9.117188 19.78125 9.214844 19.804688 9.320312 19.828125 C 9.347656 19.835938 9.371094 19.84375 9.398438 19.851562 C 9.792969 19.941406 10.289062 19.914062 10.664062 19.769531 C 10.769531 19.726562 10.871094 19.71875 10.976562 19.765625 Z M 10.976562 19.765625 "/>
<path style=" stroke:none;fill-rule:nonzero;fill:rgb(1.176471%,1.176471%,1.176471%);fill-opacity:1;" d="M 12.253906 17.714844 C 12.457031 17.78125 12.667969 17.789062 12.875 17.785156 C 12.902344 17.785156 12.925781 17.785156 12.949219 17.785156 C 13.148438 17.785156 13.332031 17.757812 13.523438 17.707031 C 13.589844 17.691406 13.652344 17.6875 13.71875 17.699219 C 13.785156 17.742188 13.84375 17.789062 13.878906 17.859375 C 13.894531 17.964844 13.894531 18.039062 13.839844 18.128906 C 13.539062 18.382812 12.949219 18.34375 12.582031 18.324219 C 12.328125 18.304688 11.921875 18.242188 11.746094 18.039062 C 11.695312 17.960938 11.695312 17.890625 11.699219 17.800781 C 11.808594 17.550781 12.058594 17.640625 12.253906 17.714844 Z M 12.253906 17.714844 "/>
<path style=" stroke:none;fill-rule:nonzero;fill:rgb(1.176471%,1.176471%,1.176471%);fill-opacity:1;" d="M 11 17.664062 C 11.058594 17.71875 11.09375 17.761719 11.105469 17.84375 C 11.113281 17.921875 11.105469 17.972656 11.066406 18.042969 C 10.84375 18.273438 10.371094 18.320312 10.070312 18.324219 C 10.019531 18.328125 9.96875 18.328125 9.914062 18.328125 C 9.894531 18.328125 9.894531 18.328125 9.875 18.324219 C 9.664062 18.324219 9.464844 18.3125 9.261719 18.261719 C 9.238281 18.253906 9.214844 18.246094 9.1875 18.242188 C 9.097656 18.214844 9.035156 18.195312 8.964844 18.128906 C 8.921875 18.042969 8.910156 17.976562 8.921875 17.878906 C 8.964844 17.792969 9.007812 17.738281 9.101562 17.699219 C 9.210938 17.6875 9.308594 17.714844 9.417969 17.746094 C 9.816406 17.839844 10.316406 17.824219 10.695312 17.65625 C 10.796875 17.621094 10.898438 17.625 11 17.664062 Z M 11 17.664062 "/>
<path style=" stroke:none;fill-rule:nonzero;fill:rgb(1.176471%,1.176471%,1.176471%);fill-opacity:1;" d="M 12.089844 19.753906 C 12.125 19.769531 12.160156 19.785156 12.199219 19.796875 C 12.410156 19.875 12.621094 19.890625 12.847656 19.886719 C 12.890625 19.886719 12.9375 19.886719 12.980469 19.886719 C 13.140625 19.886719 13.289062 19.875 13.445312 19.832031 C 13.550781 19.808594 13.664062 19.789062 13.765625 19.84375 C 13.8125 19.886719 13.851562 19.921875 13.878906 19.980469 C 13.886719 20.070312 13.886719 20.121094 13.851562 20.203125 C 13.691406 20.378906 13.402344 20.410156 13.179688 20.421875 C 13.074219 20.425781 12.96875 20.429688 12.863281 20.429688 C 12.847656 20.429688 12.832031 20.429688 12.816406 20.429688 C 12.542969 20.429688 12.289062 20.390625 12.027344 20.300781 C 12.015625 20.296875 12 20.292969 11.984375 20.289062 C 11.859375 20.246094 11.773438 20.191406 11.699219 20.078125 C 11.683594 20 11.683594 19.929688 11.726562 19.859375 C 11.828125 19.734375 11.933594 19.707031 12.089844 19.753906 Z M 12.089844 19.753906 "/>
<path style=" stroke:none;fill-rule:nonzero;fill:rgb(0.784314%,0.784314%,0.784314%);fill-opacity:1;" d="M 16.898438 16.320312 C 16.960938 16.355469 17.007812 16.398438 17.039062 16.460938 C 17.054688 16.570312 17.050781 16.65625 16.992188 16.75 C 16.691406 17.148438 16.285156 17.4375 15.785156 17.511719 C 15.6875 17.523438 15.589844 17.527344 15.488281 17.53125 C 15.472656 17.53125 15.457031 17.53125 15.4375 17.535156 C 15.324219 17.535156 15.269531 17.507812 15.1875 17.433594 C 15.132812 17.367188 15.132812 17.300781 15.136719 17.21875 C 15.140625 17.160156 15.160156 17.125 15.199219 17.078125 C 15.292969 17.003906 15.390625 17.007812 15.507812 17.003906 C 15.875 16.976562 16.203125 16.855469 16.460938 16.578125 C 16.503906 16.523438 16.542969 16.46875 16.582031 16.40625 C 16.667969 16.304688 16.773438 16.277344 16.898438 16.320312 Z M 16.898438 16.320312 "/>
<path style=" stroke:none;fill-rule:nonzero;fill:rgb(0.784314%,0.784314%,0.784314%);fill-opacity:1;" d="M 6.007812 16.316406 C 6.019531 16.316406 6.035156 16.3125 6.050781 16.3125 C 6.136719 16.324219 6.1875 16.363281 6.238281 16.429688 C 6.25 16.445312 6.261719 16.464844 6.273438 16.484375 C 6.394531 16.65625 6.535156 16.765625 6.71875 16.859375 C 6.738281 16.871094 6.757812 16.882812 6.777344 16.890625 C 6.960938 16.972656 7.148438 16.992188 7.347656 17.003906 C 7.519531 17.015625 7.519531 17.015625 7.601562 17.078125 C 7.660156 17.152344 7.667969 17.210938 7.664062 17.300781 C 7.652344 17.382812 7.601562 17.449219 7.539062 17.5 C 7.207031 17.609375 6.78125 17.488281 6.476562 17.339844 C 6.191406 17.195312 5.894531 16.957031 5.761719 16.660156 C 5.742188 16.59375 5.738281 16.542969 5.761719 16.480469 C 5.824219 16.378906 5.882812 16.316406 6.007812 16.316406 Z M 6.007812 16.316406 "/>
<path style=" stroke:none;fill-rule:nonzero;fill:rgb(0.392157%,0.392157%,0.392157%);fill-opacity:1;" d="M 11.441406 18.238281 C 11.523438 18.277344 11.570312 18.324219 11.621094 18.398438 C 11.632812 18.46875 11.628906 18.539062 11.628906 18.609375 C 11.628906 18.628906 11.628906 18.648438 11.628906 18.667969 C 11.628906 18.710938 11.628906 18.753906 11.628906 18.796875 C 11.628906 18.859375 11.628906 18.925781 11.628906 18.988281 C 11.628906 19.03125 11.628906 19.070312 11.628906 19.113281 C 11.628906 19.132812 11.628906 19.152344 11.628906 19.171875 C 11.628906 19.269531 11.625 19.339844 11.558594 19.421875 C 11.484375 19.484375 11.421875 19.515625 11.320312 19.511719 C 11.246094 19.492188 11.191406 19.4375 11.140625 19.378906 C 11.117188 19.332031 11.117188 19.304688 11.117188 19.25 C 11.117188 19.230469 11.117188 19.214844 11.117188 19.195312 C 11.117188 19.175781 11.117188 19.15625 11.117188 19.132812 C 11.117188 19.113281 11.117188 19.09375 11.117188 19.070312 C 11.117188 19.027344 11.117188 18.984375 11.113281 18.941406 C 11.113281 18.875 11.113281 18.808594 11.113281 18.742188 C 11.113281 18.699219 11.113281 18.65625 11.113281 18.613281 C 11.113281 18.59375 11.113281 18.574219 11.113281 18.554688 C 11.113281 18.378906 11.113281 18.378906 11.179688 18.300781 C 11.261719 18.234375 11.339844 18.226562 11.441406 18.238281 Z M 11.441406 18.238281 "/>
<path style=" stroke:none;fill-rule:nonzero;fill:rgb(0.392157%,0.392157%,0.392157%);fill-opacity:1;" d="M 11.421875 15.921875 C 11.515625 15.957031 11.566406 15.996094 11.621094 16.078125 C 11.632812 16.148438 11.628906 16.214844 11.628906 16.28125 C 11.628906 16.300781 11.628906 16.324219 11.628906 16.34375 C 11.628906 16.382812 11.628906 16.425781 11.628906 16.464844 C 11.628906 16.53125 11.628906 16.59375 11.628906 16.65625 C 11.628906 16.695312 11.628906 16.738281 11.628906 16.777344 C 11.628906 16.796875 11.628906 16.816406 11.628906 16.835938 C 11.628906 16.953125 11.609375 17.023438 11.53125 17.113281 C 11.46875 17.167969 11.398438 17.164062 11.320312 17.164062 C 11.242188 17.15625 11.195312 17.121094 11.148438 17.0625 C 11.105469 16.972656 11.109375 16.890625 11.109375 16.792969 C 11.109375 16.773438 11.109375 16.753906 11.109375 16.734375 C 11.109375 16.691406 11.109375 16.648438 11.109375 16.605469 C 11.109375 16.542969 11.109375 16.480469 11.105469 16.414062 C 11.105469 16.375 11.105469 16.332031 11.105469 16.292969 C 11.105469 16.261719 11.105469 16.261719 11.105469 16.234375 C 11.105469 16.113281 11.125 16.050781 11.210938 15.964844 C 11.277344 15.910156 11.335938 15.914062 11.421875 15.921875 Z M 11.421875 15.921875 "/>
<path style=" stroke:none;fill-rule:nonzero;fill:rgb(1.568628%,1.568628%,1.568628%);fill-opacity:1;" d="M 13.058594 2.078125 C 13.125 2.121094 13.15625 2.15625 13.199219 2.21875 C 13.214844 2.378906 13.171875 2.496094 13.113281 2.640625 C 13.105469 2.660156 13.097656 2.683594 13.089844 2.703125 C 12.964844 3.03125 12.964844 3.03125 12.875 3.089844 C 12.792969 3.125 12.746094 3.136719 12.660156 3.121094 C 12.578125 3.066406 12.519531 3.011719 12.480469 2.921875 C 12.472656 2.785156 12.523438 2.664062 12.574219 2.542969 C 12.585938 2.515625 12.585938 2.515625 12.597656 2.488281 C 12.617188 2.4375 12.640625 2.390625 12.660156 2.339844 C 12.671875 2.304688 12.671875 2.304688 12.6875 2.273438 C 12.722656 2.195312 12.753906 2.136719 12.828125 2.085938 C 12.914062 2.054688 12.972656 2.050781 13.058594 2.078125 Z M 13.058594 2.078125 "/>
</g>
</svg>
