<?xml version="1.0" encoding="UTF-8"?>
<svg version="1.1" xmlns="http://www.w3.org/2000/svg" width="1200" height="1200">
<path d="M0 0 C396 0 792 0 1200 0 C1200 396 1200 792 1200 1200 C804 1200 408 1200 0 1200 C0 804 0 408 0 0 Z " fill="#FEFEFE" transform="translate(0,0)"/>
<path d="M0 0 C4.17469877 1.80271083 6.45025499 4.27656285 9 8 C9.72576557 10.64098026 10.28022943 13.12937585 10.75 15.8125 C21.13963838 67.50389343 51.00562893 126.08581918 95.23461914 156.77636719 C107.99346875 165.19700675 122.08538512 171.61692882 137 175 C137.99515625 175.26039063 138.9903125 175.52078125 140.015625 175.7890625 C148.03232594 177.74387381 156.12248269 178.70053064 164.3125 179.625 C165.40264404 179.74818604 166.49278809 179.87137207 167.6159668 179.99829102 C184.26911238 181.77575665 200.81539586 182.18649066 217.55322266 182.18530273 C220.96660037 182.18747871 224.37964825 182.20567654 227.79296875 182.22460938 C269.34726332 182.33163718 312.12045937 179.88986755 343.453125 149.46484375 C345.51391972 147.47042432 347.59397935 145.62363744 349.8125 143.8125 C360.7474359 134.47333226 369.79045288 121.40186595 376.8125 108.9375 C377.29855713 108.07511719 377.29855713 108.07511719 377.79443359 107.1953125 C378.48146991 105.93201889 379.13903506 104.65247629 379.7746582 103.36254883 C381 101 381 101 382.79370117 98.22143555 C390.0420701 85.65054841 388.88251676 72.09136432 388.71105957 57.96960449 C388.65629886 53.24628039 388.63435584 48.52333096 388.63691711 43.79969788 C388.63678763 41.29654781 388.61668868 38.79329639 388.57389832 36.29051208 C388.55766653 29.8978904 388.58150167 25.803865 393 21 C395.92672672 18.62697833 397.68309204 18.04033374 401.4375 17.5625 C406.79251876 18.22013388 409.59029987 20.44243146 413.15527344 24.38134766 C416.22198574 29.17133802 415.44238266 34.79808524 415.328125 40.2734375 C415.32311518 42.73307092 415.31924632 45.19270687 415.31640625 47.65234375 C415.28954072 51.50095366 415.25042227 55.34855899 415.18896484 59.19677734 C414.97311461 74.82877237 415.23710901 86.77855841 424 100 C425.13739086 102.0556929 426.26455848 104.11712542 427.375 106.1875 C433.14777663 115.85690086 440.30713408 124.48220801 447.9296875 132.7421875 C449.78428866 134.76475254 451.55035161 136.83483984 453.3125 138.9375 C481.24746657 170.78079905 516.18822602 178.87693133 556.78915405 181.8036499 C565.72689588 182.35021193 574.67383257 182.34365401 583.625 182.3125 C584.67095337 182.31134186 585.71690674 182.31018372 586.79455566 182.30899048 C606.97985595 182.26526215 626.9320807 181.10352329 647 179 C648.07540039 178.89848633 649.15080078 178.79697266 650.25878906 178.69238281 C687.31605683 175.14235884 718.7728907 156.96126366 742.77001953 128.93261719 C769.41499496 96.6102065 788.77055151 55.77625637 797.61474609 14.87524414 C799.92834032 4.2168158 799.92834032 4.2168158 805.0703125 0.78515625 C808.68202569 -0.68438697 811.11089121 -0.56454805 815 0 C819.11639609 1.77753468 821.76553623 4.11037788 824 8 C824.99532377 15.62084423 823.12731044 22.72066828 821.0625 30 C820.59106567 31.69189453 820.59106567 31.69189453 820.11010742 33.41796875 C807.65456847 77.22354316 788.03487773 117.84356805 757.1484375 151.62890625 C755.23772896 153.73763367 753.39699852 155.88780105 751.5625 158.0625 C720.90502737 192.89105734 675.95003378 204.33042064 631.53881836 207.58544922 C618.12020042 208.42421833 604.6632309 208.29809063 591.22412109 208.26074219 C587.07056148 208.24931084 582.91725724 208.25614137 578.76370621 208.26763344 C561.74190205 208.30749368 544.9104849 208.19544309 528 206 C526.69426025 205.8448291 525.38852051 205.6896582 524.04321289 205.52978516 C481.33110671 200.279828 446.64006008 175.11073911 420.2265625 141.92578125 C414.08938074 133.86130908 408.30062916 125.63935527 403 117 C402.69408936 117.50225098 402.38817871 118.00450195 402.07299805 118.52197266 C379.36419126 155.61880207 347.57172904 190.51240491 304 202 C300.45323979 202.84316101 296.89467216 203.57385343 293.3125 204.25 C292.51352295 204.40130371 291.7145459 204.55260742 290.89135742 204.70849609 C287.93387859 205.21402362 284.9764517 205.61997839 282 206 C280.96939453 206.13180161 280.96939453 206.13180161 279.91796875 206.26626587 C262.38359192 208.4083131 244.83578741 208.2728772 227.20581055 208.19561768 C224.09760028 208.1847925 220.98943331 208.1851992 217.88120747 208.18561077 C156.40500585 208.18391382 100.91752403 201.82587413 55 157 C52.52248211 154.43867601 50.25508852 151.75821584 48 149 C47.01332997 147.82526112 46.02631662 146.65081055 45.0390625 145.4765625 C37.71855475 136.69715967 31.06269728 127.68962575 25 118 C24.61360352 117.3827002 24.22720703 116.76540039 23.82910156 116.12939453 C21.13894142 111.79875533 18.53865147 107.42103702 16 103 C15.66258789 102.4131543 15.32517578 101.82630859 14.97753906 101.22167969 C5.75902092 85.00608144 -0.90283492 67.83443388 -6.8125 50.1875 C-7.04329254 49.50238342 -7.27408508 48.81726685 -7.51187134 48.11138916 C-18.71018887 14.70415142 -18.71018887 14.70415142 -14.8125 5.0625 C-10.52972994 0.18900303 -6.27159303 -0.93054124 0 0 Z " fill="#020202" transform="translate(166,461)"/>
<path d="M0 0 C5.53728065 2.12503618 8.5344086 5.45562776 12.3125 9.8125 C18.07664281 16.24840676 24.23132301 21.77991994 31.05004883 27.0793457 C37.81318188 32.39838189 43.53596135 38.17033113 47.3125 46 C47.78300781 46.94875 48.25351562 47.8975 48.73828125 48.875 C61.614249 80.76594181 52 117.60781026 52 152 C175.09 152 298.18 152 425 152 C425 122.63 425 93.26 425 63 C430.12939873 45.04710445 436.75574703 34.35859458 451.3203125 23.12890625 C458.66410143 17.29455499 465.64139197 10.89711058 471.5 3.55859375 C474.20487381 0.7480608 476.52973474 0.0522517 480.375 -0.375 C485.47258427 0.1523363 488.15061853 2.33555668 491.875 5.6875 C493.64055528 9.31669696 493.67974046 13.04817557 493 17 C486.89040728 29.23883043 473.03266975 40.71119595 462.0625 48.625 C456.56776776 52.76350069 453.41921432 58.3011468 452 65 C451.9093321 66.4631205 451.86692046 67.92969588 451.86196899 69.39561462 C451.85378899 70.70563194 451.85378899 70.70563194 451.84544373 72.04211426 C451.8444014 72.99235474 451.84335907 73.94259521 451.84228516 74.92163086 C451.83720444 75.92855484 451.83212372 76.93547882 451.82688904 77.97291565 C451.81619216 80.15875823 451.80756931 82.34461172 451.80076981 84.53046989 C451.78897903 87.98933003 451.7695266 91.44806541 451.74765015 94.90687561 C451.6860325 104.74085349 451.63194698 114.5748178 451.59863281 124.40893555 C451.5777063 130.4242232 451.54242175 136.43928209 451.49787521 142.45443916 C451.48370196 144.74734368 451.4749898 147.04028865 451.47182083 149.33323479 C451.46692078 152.53872563 451.44378642 155.74360724 451.41650391 158.94897461 C451.41951004 159.89719086 451.42251617 160.8454071 451.4256134 161.82235718 C451.31806649 170.31680581 451.31806649 170.31680581 448 174 C443.05102775 177.27769653 439.90535634 178.50014276 433.84880066 178.50336456 C433.16071796 178.50917833 432.47263525 178.51499209 431.76370156 178.52098203 C429.46474699 178.53554619 427.16686617 178.52171465 424.86791992 178.50793457 C423.2004425 178.51254493 421.53296914 178.51889875 419.86550426 178.52684355 C415.28848741 178.54354153 410.71180418 178.53528838 406.13478613 178.52289867 C401.1967375 178.51385244 396.25874644 178.5278158 391.32070923 178.53881836 C381.64910801 178.5566127 371.97763089 178.5527595 362.30602479 178.5411678 C354.44630556 178.53213736 346.58662113 178.53090779 338.72689819 178.53526306 C337.60862174 178.53587599 336.49034529 178.53648893 335.33818167 178.53712043 C333.06648452 178.53839932 330.79478738 178.53969617 328.52309024 178.5410108 C307.21714866 178.55241928 285.9112759 178.53929867 264.60534561 178.51780933 C246.32052146 178.49993812 228.03579888 178.50304215 209.75097656 178.52148438 C188.52171436 178.54288633 167.29251249 178.55132062 146.063241 178.53903532 C143.79986128 178.53776111 141.53648155 178.53650363 139.27310181 178.53526306 C138.15945116 178.53464596 137.04580051 178.53402886 135.89840287 178.53339306 C128.04735599 178.52993814 120.19634735 178.53577157 112.3453064 178.54518127 C102.77859602 178.55639512 93.21201693 178.55337409 83.64532161 178.5320583 C78.76343989 178.52153967 73.88177714 178.51743996 68.999897 178.53065491 C64.53150203 178.54256771 60.06352916 178.53603461 55.59517252 178.5147447 C53.97817929 178.51027392 52.36115045 178.51255559 50.74418008 178.52224785 C48.54601297 178.53441385 46.34929115 178.52193673 44.15119934 178.50336456 C42.31999401 178.50239045 42.31999401 178.50239045 40.45179462 178.50139666 C36.04646923 177.86149317 33.68860851 176.47911201 30 174 C26.32497944 168.97069801 26.59314676 163.94318666 26.6628418 157.96240234 C26.6622879 156.96643036 26.66173401 155.97045837 26.66116333 154.94430542 C26.66142273 152.7868691 26.66828118 150.62942564 26.68100548 148.47202682 C26.69941875 145.04875481 26.69670231 141.62609335 26.6879425 138.20278931 C26.66616236 128.47152282 26.67695035 118.74049008 26.71508789 109.00927734 C26.7369622 103.04991943 26.72957014 97.09116128 26.7046299 91.13182449 C26.70105182 88.86978758 26.70861513 86.60770279 26.72788048 84.34574509 C27.09294271 65.88206436 27.09294271 65.88206436 18.3283844 50.11845398 C16.83904696 48.6556764 15.3044277 47.42521108 13.625 46.1875 C12.47628485 45.2776942 11.32784643 44.36753889 10.1796875 43.45703125 C9.63151367 43.03502441 9.08333984 42.61301758 8.51855469 42.17822266 C-13.79589402 24.86479348 -13.79589402 24.86479348 -15.30859375 14.984375 C-15.57869328 10.30264985 -15.21806602 7.64244271 -12.125 4 C-8.25058056 -0.04287246 -5.64301193 -0.3762008 0 0 Z " fill="#030303" transform="translate(331,901)"/>
<path d="M0 0 C3.8026029 2.0050088 5.61790841 3.42686262 8 7 C9.08985397 11.92514162 9.000386 16.23839483 6.48046875 20.67578125 C4.13604942 23.61174238 1.62868067 26.32248139 -1 29 C-1.53560547 29.56154785 -2.07121094 30.1230957 -2.62304688 30.70166016 C-15.86411294 44.57596163 -31.04537144 57.80320886 -48 67 C-48.66 67 -49.32 67 -50 67 C-50.05115967 67.77384033 -50.10231934 68.54768066 -50.1550293 69.3449707 C-50.74559231 77.67570526 -51.71216229 85.91079271 -52.8125 94.1875 C-55.06739646 111.56970245 -56.72600841 128.99996789 -58.30964661 146.45436096 C-58.77761867 151.60992378 -59.26722913 156.76250183 -59.77734375 161.9140625 C-61.06430544 175.26725976 -62.0620144 188.60232095 -62.78028107 201.99847794 C-62.89896254 204.20115079 -63.02010915 206.40367482 -63.14202881 208.60617065 C-63.22427607 210.0955182 -63.30649026 211.58486758 -63.38867188 213.07421875 C-63.45025419 214.1888383 -63.45025419 214.1888383 -63.5130806 215.32597542 C-63.71617296 219.03516576 -63.91023061 222.74444836 -64.08520508 226.45507812 C-65.4358595 255.02955569 -69.49175988 279.45780397 -91.1875 300.1875 C-106.34998919 313.01123436 -124.19412111 318.18889283 -143.77441406 318.29516602 C-145.25823474 318.30672276 -146.74201266 318.32723281 -148.22558594 318.35668945 C-150.37984182 318.39940232 -152.53287316 318.41553353 -154.6875 318.42578125 C-156.61142578 318.44765503 -156.61142578 318.44765503 -158.57421875 318.4699707 C-162.56684265 317.92223688 -164.16359101 316.79825102 -167 314 C-169.82659451 309.73003808 -169.80113888 304.94302689 -169 300 C-166.56543724 296.84164831 -164.30027757 295.20018505 -161 293 C-158.60253906 292.74462891 -158.60253906 292.74462891 -155.765625 292.7265625 C-154.20255615 292.70021729 -154.20255615 292.70021729 -152.60791016 292.67333984 C-151.4997998 292.6573877 -150.39168945 292.64143555 -149.25 292.625 C-135.39104905 292.22383544 -123.91000022 290.77539186 -112.26953125 282.5859375 C-110 281 -110 281 -107.76171875 279.90234375 C-105.40162207 278.69351374 -105.09114172 277.38687252 -104 275 C-103.071875 273.88625 -103.071875 273.88625 -102.125 272.75 C-93.61587678 261.73819348 -91.98637046 249.46512698 -91.578125 235.98828125 C-91.07113856 221.7169036 -90.03353223 207.49817289 -88.9132576 193.26373291 C-88.74693116 191.14847198 -88.58195661 189.0331088 -88.41720581 186.91772461 C-86.2836197 159.57920717 -83.91601248 132.2674559 -81 105 C-80.87991577 103.87678345 -80.75983154 102.75356689 -80.6361084 101.59631348 C-79.89311322 94.69624413 -79.12235035 87.79996719 -78.31832886 80.90673828 C-78.0671914 78.74259714 -77.82092503 76.57788441 -77.5798645 74.41259766 C-77.24540414 71.43171713 -76.88957249 68.45417944 -76.52734375 65.4765625 C-76.43262787 64.60101715 -76.33791199 63.7254718 -76.24032593 62.82339478 C-75.45957553 56.69872395 -73.94562683 52.50408523 -69.09765625 48.3828125 C-68.42605469 47.96773437 -67.75445313 47.55265625 -67.0625 47.125 C-66.27488281 46.62742187 -65.48726562 46.12984375 -64.67578125 45.6171875 C-62.7803262 44.4716132 -60.88154616 43.33153212 -58.98046875 42.1953125 C-42.35707369 32.18509395 -28.1859199 19.89686908 -15.1875 5.50683594 C-10.26873073 0.07722433 -7.2230366 -0.89832724 0 0 Z " fill="#020202" transform="translate(982,760)"/>
<path d="M0 0 C5.89603539 3.36606072 10.15783314 9.38253499 14.60546875 14.3984375 C25.9795254 26.75589545 39.67942644 36.5447675 54.36572266 44.56445312 C59.16501153 47.24556906 62.4779684 49.9559368 65 55 C65.43140854 57.79368444 65.81431278 60.57857408 66.1640625 63.3828125 C66.2767749 64.27009033 66.3894873 65.15736816 66.50561523 66.0715332 C66.88516056 69.08859687 67.25638766 72.10658148 67.625 75.125 C67.75461121 76.18507263 67.88422241 77.24514526 68.01776123 78.33734131 C73.68469609 125.04456113 78.11294399 171.87564626 80.75830078 218.85205078 C81.73744941 247.36487856 81.73744941 247.36487856 93 273 C93.556875 273.845625 94.11375 274.69125 94.6875 275.5625 C104.34063231 285.73742324 117.26182299 290.89637093 131.1015625 291.2734375 C134.38056367 291.33679984 137.65792127 291.37515529 140.9375 291.390625 C147.48378129 291.53328004 151.71097377 292.01511722 157 296 C159.971705 300.4575575 159.75294249 304.77413182 159 310 C157.34766078 313.17568542 155.24607029 315.37696485 152 317 C147.52833918 317.26223037 143.0523594 317.27137839 138.57397461 317.29516602 C137.08950156 317.30654436 135.60506461 317.32676376 134.12084961 317.35668945 C112.67082124 317.78873121 94.12673331 311.34561943 78.44140625 296.41748047 C72.29372728 290.37184631 67.63973276 283.87394865 63.6875 276.25 C63.37385498 275.65550049 63.06020996 275.06100098 62.73706055 274.44848633 C57.19673071 263.09666314 55.41235422 250.87166225 54.83984375 238.3984375 C54.76560198 237.04041497 54.68983703 235.68247498 54.6126709 234.32461548 C54.45328278 231.47444251 54.30294621 228.62401214 54.16036987 225.77294922 C53.93716487 221.32029907 53.69112491 216.86910468 53.43969727 212.41796875 C53.37719866 211.31060301 53.37719866 211.31060301 53.31343746 210.18086624 C53.22968664 208.69810019 53.14585366 207.21533878 53.06193733 205.73258209 C52.93806372 203.53344528 52.81603864 201.33421255 52.69444275 199.13494873 C52.08041049 188.07862991 51.35600314 177.03547102 50.4375 166 C50.37730682 165.27453979 50.31711365 164.54907959 50.25509644 163.80163574 C49.40514563 153.69273473 48.35043736 143.61219777 47.12475586 133.54199219 C46.10089635 125.12433288 45.28442198 116.69257075 44.5 108.25 C43.54556646 98.02130599 42.4191521 87.84761403 40.9140625 77.68457031 C40.33655579 73.75224637 39.82903575 69.98916587 40 66 C39.32195312 65.76410156 38.64390625 65.52820313 37.9453125 65.28515625 C34.32482194 63.70539313 31.13774334 61.63809053 27.875 59.4375 C27.21411377 58.99349854 26.55322754 58.54949707 25.87231445 58.09204102 C19.95647889 54.06388764 14.40601421 49.69185565 9 45 C8.17113281 44.28199219 7.34226563 43.56398438 6.48828125 42.82421875 C-17.90276705 21.26666743 -17.90276705 21.26666743 -18.75 11.875 C-17.79477441 6.93966779 -15.6996627 4.30669335 -12 1 C-8.19317323 -0.90341338 -4.12816173 -0.71741249 0 0 Z " fill="#020202" transform="translate(168,761)"/>
<path d="M0 0 C2.74292373 2.89401699 3.4505237 4.90452678 3.5 8.875 C3.39419637 12.46174294 3.00304856 14.67673544 0.75 17.5 C-3.21969972 21.10881793 -5.82680264 22.2195033 -11.171875 22.3515625 C-36.44302505 23.37257955 -61.22472765 28.71721294 -84 40 C-84.77553223 40.37350586 -85.55106445 40.74701172 -86.35009766 41.13183594 C-103.51404901 49.45228218 -118.91375082 60.15464983 -133 73 C-133.49806152 73.4527832 -133.99612305 73.90556641 -134.50927734 74.37207031 C-144.40340296 83.49768893 -152.92465406 94.07464185 -160.20703125 105.390625 C-162.49781315 108.72448623 -164.17482651 109.70088448 -168 111 C-172.42630099 111.45098161 -176.69991756 111.03918612 -181.09814453 110.5 C-185.76406063 109.9792108 -190.37445584 109.822495 -195.06640625 109.796875 C-196.32214699 109.78832489 -196.32214699 109.78832489 -197.60325623 109.77960205 C-199.36545577 109.77021999 -201.12767233 109.76364539 -202.88989258 109.75976562 C-205.53173961 109.7501124 -208.17278956 109.71904519 -210.81445312 109.6875 C-221.5930939 109.62055584 -231.48890105 110.55205977 -242 113 C-242.65430496 113.14977798 -243.30860992 113.29955597 -243.98274231 113.45387268 C-263.08392752 117.8468619 -280.00496572 126.38255674 -295 139 C-296.010625 139.763125 -297.02125 140.52625 -298.0625 141.3125 C-303.36942535 146.16777213 -307.73559286 151.95747613 -312.0234375 157.71875 C-314.54104521 160.62444744 -316.38812128 161.77797019 -320.18359375 162.30078125 C-324.90921728 162.32535122 -328.29643664 162.26785002 -332 159 C-334.47119801 155.33580985 -335.7893452 151.74289682 -335.6015625 147.26171875 C-334.2198903 142.06699015 -330.38429057 138.04643437 -327 134 C-326.29101562 133.15050781 -325.58203125 132.30101562 -324.8515625 131.42578125 C-303.38695253 106.74535427 -273.98824789 91.09369214 -242 85 C-241.09145264 84.81083008 -240.18290527 84.62166016 -239.24682617 84.42675781 C-231.3362511 83.02071792 -223.80334958 82.9548003 -215.79296875 83.19140625 C-214.6946875 83.2188945 -213.59640625 83.24638275 -212.46484375 83.27470398 C-207.87452983 83.39218095 -203.28673356 83.51287407 -198.69946289 83.7199707 C-185.45013785 85.05628806 -185.45013785 85.05628806 -173.5715332 80.68041992 C-171.28360711 77.88312862 -169.668233 75.19344341 -168 72 C-166.64810059 70.35863795 -165.25670537 68.74826014 -163.8125 67.1875 C-163.06613281 66.3728125 -162.31976563 65.558125 -161.55078125 64.71875 C-160.70902344 63.8215625 -159.86726562 62.924375 -159 62 C-158.50935059 61.47535156 -158.01870117 60.95070313 -157.51318359 60.41015625 C-144.63289968 46.75319161 -130.02091459 35.72034609 -114 26 C-112.39511719 25.00419922 -112.39511719 25.00419922 -110.7578125 23.98828125 C-88.70506415 10.78257665 -23.79690229 -19.23357586 0 0 Z " fill="#020202" transform="translate(382,127)"/>
<path d="M0 0 C1.65467285 -0.01691895 1.65467285 -0.01691895 3.34277344 -0.03417969 C5.10669434 -0.01919434 5.10669434 -0.01919434 6.90625 -0.00390625 C8.72044434 0.00527832 8.72044434 0.00527832 10.57128906 0.01464844 C21.2396611 0.1979538 31.10322611 1.79233263 41.40625 4.43359375 C43.31664062 4.88412109 43.31664062 4.88412109 45.265625 5.34375 C93.74241683 17.35892051 136.44142284 45.51997023 166.40625 85.43359375 C167.63865407 86.89775572 167.63865407 86.89775572 171.37744141 86.49951172 C173.17095132 86.4791566 174.96441243 86.4542124 176.7578125 86.42578125 C178.73355121 86.40557403 180.70930078 86.38640827 182.68505859 86.36816406 C184.2414505 86.35251404 184.2414505 86.35251404 185.82928467 86.33654785 C219.74625137 86.04044273 219.74625137 86.04044273 236.40625 89.43359375 C237.10556641 89.56217773 237.80488281 89.69076172 238.52539062 89.82324219 C273.69716031 96.39912491 303.39426363 118.29451886 324.40625 146.43359375 C326.00406534 149.62922443 325.77466911 152.95705705 325.40625 156.43359375 C323.63107586 160.54452334 321.26856366 163.16658356 317.40625 165.43359375 C312.95096902 166.24888546 309.47518056 165.91352175 305.34375 164.05859375 C300.192952 159.45575298 296.24320211 153.86631411 292.09375 148.37109375 C270.28135063 124.52963397 236.71560631 113.88040923 205.25341797 112.27246094 C193.15191814 111.90625324 181.23913241 112.34183082 169.24609375 113.99609375 C159.15819261 115.14547821 159.15819261 115.14547821 154.6953125 113.33203125 C151.80355704 110.93374942 149.8376002 108.15957323 147.78125 105.05859375 C119.56231459 64.18208837 75.54887137 37.18174263 26.87207031 27.97070312 C19.70335152 26.85974361 12.4580684 26.43957941 5.21240234 26.18994141 C-0.97852449 25.92305075 -4.88786879 25.61573071 -9.59375 21.43359375 C-11.98088778 18.48945715 -12.55567889 16.78257897 -12.96875 12.99609375 C-12.47966456 8.34978206 -11.29180934 5.02069499 -7.83398438 1.78881836 C-5.0445886 0.10137983 -3.2485664 0.03221939 0 0 Z " fill="#020202" transform="translate(767.59375,123.56640625)"/>
<path d="M0 0 C6.78296644 5.28902044 12.7746304 11.058739 18.24853516 17.69677734 C30.47377747 31.88306535 45.24205233 44.46115025 64.31103516 47.63427734 C69.39723363 48.62707885 72.73195266 49.81412321 76.06103516 53.94677734 C78.08058361 58.62362639 77.8105173 62.23562378 75.99853516 66.94677734 C73.56662053 70.76835747 71.51391153 72.27498522 67.24853516 73.69677734 C49.50435951 75.50126978 30.58355997 64.25155686 17.24853516 53.69677734 C10.65701325 48.16437409 4.52925355 42.24653219 -1.04052734 35.68505859 C-10.66811953 24.49682931 -23.28833283 13.03949046 -38.57958984 11.39208984 C-51.85935669 10.81322821 -63.06637047 16.69100736 -72.72900391 25.49951172 C-78.89139838 31.37147137 -84.83560901 37.43849449 -90.39208984 43.88818359 C-103.93155009 59.49408277 -125.22188269 71.6190117 -145.87646484 73.93505859 C-150.95972567 74.136271 -153.81479298 73.17569667 -157.75146484 69.69677734 C-160.39347509 65.64569496 -161.45383369 62.51302085 -160.75146484 57.69677734 C-158.25789881 52.90145805 -155.54030638 50.17988036 -150.75146484 47.69677734 C-148.35340515 47.13580267 -145.94720337 46.72810144 -143.52099609 46.30615234 C-127.03359239 42.67845844 -113.46881343 31.53786143 -102.76708984 18.98583984 C-74.87634859 -12.6885291 -36.73085159 -27.33053886 0 0 Z " fill="#020202" transform="translate(610.75146484375,719.30322265625)"/>
<path d="M0 0 C6.44774159 4.83921409 7.34740864 11.02196266 8.7734375 18.60546875 C17.73474759 64.74584771 43.49045775 114.11052022 82.5703125 141.4609375 C85.9764073 143.55092148 88.0821886 144.38352131 92.09765625 144.01171875 C98.09537376 141.68473545 102.79935224 137.80408208 107.46875 133.46484375 C109.89080361 131.30416283 111.03621642 131.01762643 114.34765625 130.69921875 C119.44222922 131.1237665 122.36512403 133.05536658 125.73046875 136.85546875 C128.18654344 140.7290494 128.01925654 144.60925403 127.09765625 149.01171875 C125.20273849 152.18668421 122.81866701 154.53174241 120.09765625 157.01171875 C119.27007813 157.82962891 119.27007813 157.82962891 118.42578125 158.6640625 C109.02746816 167.45819832 97.58620266 170.65066627 85.00390625 170.31640625 C67.17248016 168.92555501 48.27496705 148.55877743 37.00390625 135.60546875 C34.64519736 132.78166234 32.36061506 129.91285395 30.09765625 127.01171875 C29.67081543 126.46660645 29.24397461 125.92149414 28.80419922 125.35986328 C8.05872397 98.65243427 -6.56779208 66.71739251 -14.90234375 34.01171875 C-15.0828125 33.3273877 -15.26328125 32.64305664 -15.44921875 31.93798828 C-21.0169545 10.71569822 -21.0169545 10.71569822 -17.69140625 4.890625 C-13.38216165 -0.54514802 -6.80142832 -3.53339089 0 0 Z " fill="#020202" transform="translate(490.90234375,48.98828125)"/>
<path d="M0 0 C4.56293534 2.32620233 8.01157749 5.22473319 10 10 C10.59969987 13.96618817 10.56797358 17.87044398 10.5 21.875 C10.48718994 23.02105713 10.47437988 24.16711426 10.46118164 25.34790039 C9.53252323 65.46759721 -8.38377244 100.73082486 -34 131 C-34.804375 131.97582031 -35.60875 132.95164062 -36.4375 133.95703125 C-46.00778759 145.50976086 -56.16902825 156.49484139 -67.0625 166.8125 C-67.9911084 167.70183228 -67.9911084 167.70183228 -68.93847656 168.60913086 C-73.89368656 173.22056808 -77.95943722 175.56924457 -85.00390625 175.3828125 C-88.73281491 174.66767933 -90.42850652 172.75517159 -93 170 C-95.2925974 166.04005903 -95.68775516 162.50861718 -95 158 C-89.38473269 149.81826375 -81.0556855 143.00806059 -73.97558594 136.0715332 C-66.81244709 129.04384978 -60.19270863 121.91407445 -54 114 C-53.09582002 112.88088953 -52.19101176 111.76228591 -51.28515625 110.64453125 C-29.54581026 82.94501308 -16.63697221 54.6021754 -16.5534668 19.02661133 C-16.39997687 7.69330867 -16.39997687 7.69330867 -12 3 C-8.07324125 -0.18385844 -4.98824428 -0.6125914 0 0 Z " fill="#030303" transform="translate(142,657)"/>
<path d="M0 0 C4.46337488 2.31752157 6.75756158 4.54258325 9 9 C9.40063477 11.62451172 9.40063477 11.62451172 9.44140625 14.4296875 C9.47850708 15.98224243 9.47850708 15.98224243 9.51635742 17.56616211 C9.53158447 18.65807861 9.54681152 19.74999512 9.5625 20.875 C9.62826628 23.14466754 9.69855807 25.41420859 9.7734375 27.68359375 C9.80920898 28.77655762 9.84498047 29.86952148 9.88183594 30.99560547 C10.62450737 49.87848692 16.95468761 66.61320137 26 83 C26.33870117 83.61939453 26.67740234 84.23878906 27.02636719 84.87695312 C39.21031914 106.88443329 56.33333266 125.72731672 74.1875 143.25 C76.02447957 145.05925976 77.85987858 146.87006125 79.69245911 148.68377686 C80.8181686 149.79731173 81.94654097 150.90816293 83.07792664 152.01593018 C86.54203146 155.43494549 88.16135966 157.3257564 88.4375 162.1875 C88.4065914 166.97060569 86.80873708 169.27068044 83.60546875 172.6875 C80.53959021 175.19391165 77.03160003 175.45977269 73.16430664 175.40966797 C66.54263213 174.15629292 60.52116573 166.93458564 55.75 162.4375 C55.10450195 161.83107666 54.45900391 161.22465332 53.79394531 160.59985352 C47.5505349 154.67261384 41.69309921 148.45363531 36 142 C35.3205835 141.23768066 35.3205835 141.23768066 34.62744141 140.45996094 C22.98651778 127.34142277 12.64844626 113.0677856 4.01757812 97.79589844 C3.3452436 96.60931188 2.66437336 95.42751684 1.97460938 94.25097656 C-7.69191245 77.75504782 -13.81676271 59.98754851 -16 41 C-16.09063721 40.30173096 -16.18127441 39.60346191 -16.2746582 38.8840332 C-17.02116912 32.86039312 -17.25055391 26.87908665 -17.3125 20.8125 C-17.34150391 19.85408203 -17.37050781 18.89566406 -17.40039062 17.90820312 C-17.45286494 12.06740778 -16.99818389 8.58487392 -13 4 C-8.65214062 0.3284743 -5.67458104 -0.81065443 0 0 Z " fill="#030303" transform="translate(1005,657)"/>
<path d="M0 0 C2.48100348 2.22654158 4.24969075 3.88503067 4.73828125 7.2734375 C4.76781793 13.04293566 3.93257875 16.24623807 0.13232422 20.72607422 C-1.97160245 22.54026394 -3.68171936 23.00435919 -6.3671875 23.6953125 C-7.81569092 24.08481079 -7.81569092 24.08481079 -9.29345703 24.48217773 C-10.33099121 24.75618408 -11.36852539 25.03019043 -12.4375 25.3125 C-43.54686583 33.97429586 -72.82496083 49.58345955 -92.5703125 75.859375 C-95.07275258 78.78379517 -96.88287377 80.00732191 -100.7109375 80.41796875 C-101.44570313 80.40378906 -102.18046875 80.38960938 -102.9375 80.375 C-104.03191406 80.36533203 -104.03191406 80.36533203 -105.1484375 80.35546875 C-107.5625 80.1875 -107.5625 80.1875 -110.16796875 79.68359375 C-114.95184993 78.98445346 -119.67225071 79.04320187 -124.5 79.0625 C-125.46357422 79.05863281 -126.42714844 79.05476563 -127.41992188 79.05078125 C-132.57413389 79.05782734 -137.46412247 79.34626771 -142.5625 80.1875 C-150.94278403 81.04890952 -150.94278403 81.04890952 -154.46484375 79.17578125 C-156.99749921 77.11374147 -158.75424675 74.89987988 -160.5625 72.1875 C-161.03378944 67.39605735 -161.07548393 65.1585053 -158.8125 60.875 C-153.51642125 54.54912816 -147.3201968 53.42586276 -139.41552734 52.40283203 C-132.18255942 51.8569243 -124.82721742 52.25048556 -117.59204102 52.6496582 C-111.19935897 53.0681554 -111.19935897 53.0681554 -105.49169922 50.7277832 C-103.98710204 48.95572808 -102.7720914 47.16858477 -101.5625 45.1875 C-99.01684409 42.7093819 -96.2798794 40.4750898 -93.5625 38.1875 C-92.72203125 37.43597656 -91.8815625 36.68445313 -91.015625 35.91015625 C-72.31385457 19.55902271 -49.10347567 8.64870882 -25.5625 1.1875 C-24.53640625 0.84847656 -23.5103125 0.50945312 -22.453125 0.16015625 C-14.93013854 -2.14561785 -7.24106453 -3.68405038 0 0 Z " fill="#020202" transform="translate(759.5625,280.8125)"/>
<path d="M0 0 C4.93169095 1.1201097 9.67342416 2.69510612 14.4375 4.375 C15.41420654 4.71046341 15.41420654 4.71046341 16.41064453 5.05270386 C41.68816633 13.74127328 66.5489601 26.18033901 85 46 C85.9075 46.9075 86.815 47.815 87.75 48.75 C90 51 90 51 91.2746582 52.62890625 C93.799763 54.63555525 95.66868187 54.29258297 98.85546875 54.1875 C100.02843506 54.16212158 101.20140137 54.13674316 102.40991211 54.1105957 C104.27981812 54.05585083 104.27981812 54.05585083 106.1875 54 C132.84416905 53.59732102 132.84416905 53.59732102 142 60 C145.24018125 63.76561605 146.77118764 66.89679701 146.52734375 71.96875 C145.53849395 75.77765292 142.96596598 78.51032052 140 81 C135.30067243 82.56644252 130.71937729 82.27613588 125.88671875 81.5 C121.08686706 80.88253164 116.39564183 80.85438959 111.5625 80.875 C110.65951172 80.87113281 109.75652344 80.86726563 108.82617188 80.86328125 C103.45148499 80.87106501 98.32029226 81.25050312 93 82 C87.8978846 82.50587546 84.29076845 82.78458474 79.8125 80.0625 C76.8659359 77.140559 74.46290477 73.75061434 71.95703125 70.453125 C53.12320591 46.84505651 22.7388611 33.59425367 -5.8359375 26.2734375 C-11.17874713 24.84764373 -14.47736805 23.54533155 -18 19 C-19.35113662 14.94659014 -19.5512044 11.23831488 -19 7 C-14.18306005 -0.80676475 -8.45832662 -0.82735429 0 0 Z " fill="#030303" transform="translate(395,279)"/>
<path d="M0 0 C4.15785382 1.79543688 6.47068793 4.28037292 9 8 C9.50057125 10.95949554 9.50057125 10.95949554 9.50120544 14.3001709 C9.51103958 15.57035568 9.52087372 16.84054047 9.53100586 18.1492157 C9.52163466 19.54934962 9.51185538 20.94948086 9.50170898 22.34960938 C9.50549362 23.82990533 9.51099486 25.31019774 9.51808167 26.79048157 C9.53203488 30.80500681 9.52086768 34.8191034 9.50437045 38.83360481 C9.49051173 43.03665624 9.49698097 47.23968299 9.50050354 51.44274902 C9.50320502 58.50080262 9.4897355 65.5586861 9.46655273 72.61669922 C9.43994334 80.77437205 9.4381961 88.93176045 9.4499411 97.0894618 C9.46072392 104.93995264 9.45452786 112.79034068 9.44038582 120.64082336 C9.43463038 123.98043755 9.43470521 127.3199764 9.43945122 130.65959167 C9.44422695 134.5929547 9.43409484 138.52600666 9.41249657 142.45931053 C9.40693662 143.90205524 9.40645616 145.34482989 9.41144943 146.78757668 C9.41741428 148.75833438 9.40304721 150.72912228 9.38768005 152.6998291 C9.38525016 153.80225197 9.38282026 154.90467484 9.38031673 156.04050446 C8.79160566 160.62165395 6.52872609 164.05939493 3 167 C-0.75535411 168.2517847 -4.11710414 168.77373976 -8 168 C-11.3249149 165.93384829 -14.23445396 163.53109208 -16 160 C-16.10676638 158.01417613 -16.14831873 156.02474084 -16.16062927 154.03608704 C-16.1706749 152.76450241 -16.18072052 151.49291779 -16.19107056 150.18280029 C-16.19710096 148.76550352 -16.20298593 147.34820612 -16.20874023 145.9309082 C-16.21827676 144.44445066 -16.22816783 142.95799536 -16.23838806 141.47154236 C-16.26980063 136.58131554 -16.29004492 131.69107157 -16.30859375 126.80078125 C-16.31189107 125.96889526 -16.31518839 125.13700927 -16.31858563 124.27991462 C-16.34937093 116.43442712 -16.37607958 108.58893581 -16.39300442 100.74340534 C-16.41490703 90.7078341 -16.45686402 80.67279819 -16.52644199 70.63744098 C-16.57369949 63.5817263 -16.59794041 56.52615595 -16.6052013 49.47028798 C-16.6101556 45.25618692 -16.62521395 41.0426889 -16.6649456 36.82876015 C-16.70185622 32.86163336 -16.71020781 28.89545286 -16.69693947 24.92818642 C-16.69699335 23.47494722 -16.70726202 22.02166564 -16.7286911 20.56858444 C-16.90080319 8.23489048 -16.90080319 8.23489048 -13.08143616 3.64274597 C-9.09853472 -0.17335818 -5.42304207 -0.57469617 0 0 Z " fill="#000000" transform="translate(710,31)"/>
<path d="M0 0 C4.15785382 1.79543688 6.47068793 4.28037292 9 8 C9.50057125 10.95949554 9.50057125 10.95949554 9.50120544 14.3001709 C9.51103958 15.57035568 9.52087372 16.84054047 9.53100586 18.1492157 C9.52163466 19.54934962 9.51185538 20.94948086 9.50170898 22.34960938 C9.50549362 23.82990533 9.51099486 25.31019774 9.51808167 26.79048157 C9.53203488 30.80500681 9.52086768 34.8191034 9.50437045 38.83360481 C9.49051173 43.03665624 9.49698097 47.23968299 9.50050354 51.44274902 C9.50320502 58.50080262 9.4897355 65.5586861 9.46655273 72.61669922 C9.43994334 80.77437205 9.4381961 88.93176045 9.4499411 97.0894618 C9.46072392 104.93995264 9.45452786 112.79034068 9.44038582 120.64082336 C9.43463038 123.98043755 9.43470521 127.3199764 9.43945122 130.65959167 C9.44422695 134.5929547 9.43409484 138.52600666 9.41249657 142.45931053 C9.40693662 143.90205524 9.40645616 145.34482989 9.41144943 146.78757668 C9.41741428 148.75833438 9.40304721 150.72912228 9.38768005 152.6998291 C9.38525016 153.80225197 9.38282026 154.90467484 9.38031673 156.04050446 C8.79160566 160.62165395 6.52872609 164.05939493 3 167 C-0.75535411 168.2517847 -4.11710414 168.77373976 -8 168 C-11.3249149 165.93384829 -14.23445396 163.53109208 -16 160 C-16.10676638 158.01417613 -16.14831873 156.02474084 -16.16062927 154.03608704 C-16.1706749 152.76450241 -16.18072052 151.49291779 -16.19107056 150.18280029 C-16.19710096 148.76550352 -16.20298593 147.34820612 -16.20874023 145.9309082 C-16.21827676 144.44445066 -16.22816783 142.95799536 -16.23838806 141.47154236 C-16.26980063 136.58131554 -16.29004492 131.69107157 -16.30859375 126.80078125 C-16.31189107 125.96889526 -16.31518839 125.13700927 -16.31858563 124.27991462 C-16.34937093 116.43442712 -16.37607958 108.58893581 -16.39300442 100.74340534 C-16.41490703 90.7078341 -16.45686402 80.67279819 -16.52644199 70.63744098 C-16.57369949 63.5817263 -16.59794041 56.52615595 -16.6052013 49.47028798 C-16.6101556 45.25618692 -16.62521395 41.0426889 -16.6649456 36.82876015 C-16.70185622 32.86163336 -16.71020781 28.89545286 -16.69693947 24.92818642 C-16.69699335 23.47494722 -16.70726202 22.02166564 -16.7286911 20.56858444 C-16.90080319 8.23489048 -16.90080319 8.23489048 -13.08143616 3.64274597 C-9.09853472 -0.17335818 -5.42304207 -0.57469617 0 0 Z " fill="#000000" transform="translate(437,31)"/>
<path d="M0 0 C3.98261611 2.06692735 6.45113431 4.09882503 8.1015625 8.2734375 C9.11160251 14.83869757 6.69581997 19.0157911 3.1015625 24.2734375 C-17.24438755 51.38847739 -47.02024833 67.04310538 -80.16015625 72.765625 C-88.48724003 73.89678581 -96.74482005 74.52145976 -105.1484375 74.6484375 C-106.10234375 74.68582031 -107.05625 74.72320313 -108.0390625 74.76171875 C-112.58242863 74.81851083 -115.8554532 74.8375811 -119.484375 71.90234375 C-122.70602015 68.3939826 -123.67676044 66.0099078 -124.2734375 61.3359375 C-123.77766249 57.28710823 -122.53241379 55.38017876 -119.8984375 52.2734375 C-114.3382265 48.38977867 -110.27063413 47.73313495 -103.5859375 47.7109375 C-93.81137771 47.44825357 -84.46952774 46.24141741 -74.8984375 44.2734375 C-73.90714844 44.06976562 -72.91585937 43.86609375 -71.89453125 43.65625 C-50.09530463 38.39324745 -28.84504372 25.4486755 -16.7109375 6.3984375 C-12.64153373 0.13024298 -7.59541895 -2.90688873 0 0 Z " fill="#030303" transform="translate(896.8984375,724.7265625)"/>
<path d="M0 0 C4.21704444 2.62856133 6.60613742 6.83784978 9.29736328 10.89038086 C21.13948377 28.70359167 43.37179769 39.77792409 63.81640625 44.296875 C73.80758791 46.28482881 83.76886579 47.20825602 93.9519043 47.34667969 C100.48771602 47.51025934 104.60950741 48.92845258 109.5 53.5 C112.30510064 57.87265688 112.27472667 59.69590247 111.625 64.8125 C110.12782018 68.02074247 108.34981464 70.54182114 105.625 72.8125 C82.67670386 80.46193205 50.02811953 70.19637495 29.1875 59.875 C10.41068423 50.2124113 -11.57399214 35.46222668 -19.375 14.8125 C-19.91044952 10.52890386 -19.68535287 8.41021664 -17.6875 4.5625 C-12.53974261 -1.55915744 -7.59066157 -2.67078833 0 0 Z " fill="#030303" transform="translate(254.375,725.1875)"/>
<path d="M0 0 C5.73416054 4.75116159 5.73416054 4.75116159 6.64453125 8.890625 C6.96459472 13.26730681 6.50645429 15.75728256 3.87890625 19.33203125 C-0.34033972 23.96845547 -5.63946689 25.3643093 -11.5 27.125 C-12.52544922 27.45822266 -13.55089844 27.79144531 -14.60742188 28.13476562 C-26.15214295 31.78852763 -36.96595597 33.14438467 -49.02734375 33.07324219 C-51.17737243 33.06255036 -53.3265595 33.07318075 -55.4765625 33.0859375 C-64.07752991 33.09501123 -72.34679126 32.42037352 -80.8125 30.8125 C-81.60817383 30.67183105 -82.40384766 30.53116211 -83.22363281 30.38623047 C-96.61523221 27.90461303 -96.61523221 27.90461303 -100.8125 23.6875 C-103.22781706 20.05279957 -103.60808418 16.48198312 -103.33984375 12.18359375 C-102.46014589 8.2282115 -100.80395672 6.53200611 -97.8125 3.8125 C-92.90574714 0.79605357 -88.14880589 2.0229925 -82.765625 3.296875 C-81.4872584 3.63436378 -80.20901445 3.97231757 -78.9309082 4.31079102 C-59.24053922 8.97412031 -34.44074571 7.5429832 -15.62890625 0.19921875 C-10.2756253 -1.85087705 -5.35316634 -2.26022579 0 0 Z " fill="#030303" transform="translate(548.8125,988.1875)"/>
<path d="M0 0 C9.99512908 3.35751432 20.60133481 3.64860796 31.046875 3.6015625 C32.26503906 3.59954834 33.48320313 3.59753418 34.73828125 3.59545898 C44.71148157 3.48471933 53.76716478 2.25340969 63.40234375 -0.28125 C66.75944236 -1.0686292 69.86559267 -1.39346031 73.234375 -0.7109375 C76.55835899 1.35859276 79.46825425 3.756821 81.234375 7.2890625 C81.88288684 12.44009939 81.87999729 16.1793992 79.234375 20.7265625 C64.27016512 33.50849178 34.79016364 31.47221243 16.25445557 30.44854736 C3.71078339 29.45822753 -16.72050682 26.43647808 -25.48828125 16.296875 C-28.01085701 12.33172533 -28.08304634 8.89167189 -27.765625 4.2890625 C-22.36838325 -8.20981313 -9.92540123 -3.77165247 0 0 Z " fill="#030303" transform="translate(612.765625,885.7109375)"/>
<path d="M0 0 C3.0511547 2.68131777 4.73097429 4.84156146 5.41796875 8.92578125 C5.66778607 12.94311384 5.28494295 15.37616959 3.4375 19 C-7.77606912 30.43593451 -31.36160341 32.7455095 -46.390625 33.11328125 C-48.98951597 33.1323968 -51.58856173 33.13593274 -54.1875 33.125 C-55.20464584 33.12276428 -55.20464584 33.12276428 -56.24234009 33.1204834 C-66.76592461 33.07897086 -76.728619 32.49663276 -86.9375 29.8125 C-88.10539062 29.51085937 -89.27328125 29.20921875 -90.4765625 28.8984375 C-95.02289788 27.56383308 -98.16742265 26.5467598 -101.625 23.25 C-103.93269326 18.96428394 -104.34730807 15.64823517 -103.9375 10.8125 C-101.68415796 6.47273014 -99.48383071 3.71561518 -94.9375 1.8125 C-89.35683413 1.12915316 -84.43276689 2.57223049 -79.09765625 4.05859375 C-59.15802521 8.81551438 -34.07057623 7.9771328 -15.2109375 -0.390625 C-10.10426963 -2.18059106 -4.98102783 -2.013607 0 0 Z " fill="#030303" transform="translate(549.9375,883.1875)"/>
<path d="M0 0 C1.77550173 0.68813825 3.54891987 1.38167443 5.3203125 2.08032227 C16.0117454 5.93880308 26.51205037 6.6967935 37.7487793 6.60205078 C40.01737315 6.58592507 42.28419299 6.6020201 44.55273438 6.62109375 C52.57647479 6.63139429 59.85016408 6.04348913 67.64868164 3.90893555 C72.99204115 2.57902653 78.71946439 1.62599598 83.65625 4.48828125 C86.11606123 6.53312433 88.01674789 8.33818328 89.453125 11.2109375 C89.83335902 15.77374569 89.88050529 18.28494688 87.953125 22.4609375 C80.00826113 31.20028776 65.59826132 32.65329036 54.43621826 33.33392334 C49.15108648 33.57450671 43.86807269 33.63189524 38.578125 33.6484375 C37.84153656 33.65452026 37.10494812 33.66060303 36.34603882 33.66687012 C22.67214205 33.74070181 9.90298123 31.73280673 -3.109375 27.3359375 C-3.84994141 27.10519531 -4.59050781 26.87445312 -5.35351562 26.63671875 C-11.57769978 24.56752331 -15.83315694 21.78151459 -19.546875 16.2109375 C-20.35025279 12.22494767 -20.40928815 8.63947461 -18.2734375 5.1015625 C-13.11223698 -0.99117177 -7.81360615 -2.42077982 0 0 Z " fill="#030303" transform="translate(604.546875,987.7890625)"/>
<path d="M0 0 C2.9549485 1.83168514 5.41832955 3.8366591 7 7 C7.81227351 12.43914794 7.58458535 16.81660253 4.5625 21.5 C-10.43303857 41.47052902 -30.65599865 55.80162539 -55.6640625 59.51953125 C-60.6211306 60.12729882 -65.57140261 60.42776649 -70.5625 60.5625 C-71.39547607 60.60165527 -72.22845215 60.64081055 -73.08666992 60.68115234 C-78.69818124 60.70495635 -81.60558143 59.41672504 -85.70288086 55.58569336 C-88.30187312 52.40849503 -88.28044551 48.96864448 -88.21484375 44.99609375 C-87.89350529 42.01056732 -86.90308743 40.29682965 -85 38 C-80.30930498 34.22319785 -75.38542681 34.43618928 -69.625 34.125 C-51.26586181 32.77881412 -34.79747155 26.691804 -22 13 C-19.88566701 10.18465821 -17.89030889 7.34291337 -15.984375 4.3828125 C-11.67475932 -0.79211971 -6.34038646 -2.10505872 0 0 Z " fill="#020202" transform="translate(845,816)"/>
<path d="M0 0 C0.75925781 -0.02578125 1.51851563 -0.0515625 2.30078125 -0.078125 C6.53037201 0.5033572 8.98488944 2.36602451 11.609375 5.66796875 C12.21265625 6.58191406 12.8159375 7.49585938 13.4375 8.4375 C19.45509425 16.98406444 26.38435516 22.6073216 35.6875 27.25 C36.63625 27.78625 37.585 28.3225 38.5625 28.875 C47.78496722 32.93288557 57.01729354 33.82057228 66.98242188 34.42797852 C75.71862846 35.04467889 75.71862846 35.04467889 79.6875 38.25 C82.64197885 41.81575034 83.15808913 44.83296062 82.98046875 49.32421875 C82.3499379 53.46890818 79.84375423 56.61978814 76.6875 59.25 C60.04845937 64.79634688 38.76139459 58.58089214 23.5390625 51.2890625 C9.26573594 43.99795709 -5.60165637 32.03140067 -12.3125 17.25 C-13.15810858 13.9824014 -13.30486944 11.48889904 -12.3125 8.25 C-9.13376601 3.1409774 -6.13500289 0.12373115 0 0 Z " fill="#020202" transform="translate(300.3125,815.75)"/>
<path d="M0 0 C4.16547499 1.79872784 6.61042522 4.16334836 9 8 C9.58310377 11.45921266 9.53686318 14.87398246 9.49609375 18.375 C9.49754898 19.37708496 9.49900421 20.37916992 9.50050354 21.41162109 C9.49884648 23.52639682 9.48730692 25.64118484 9.46655273 27.75585938 C9.43760027 30.98880352 9.44594801 34.22010696 9.45898438 37.453125 C9.45274655 39.51042462 9.44435527 41.56771907 9.43359375 43.625 C9.43652939 44.58970215 9.43946503 45.5544043 9.44248962 46.54833984 C9.37309192 51.49670779 9.27359771 55.01771538 6 59 C2.23274143 62.24159458 -0.89610049 63.76537228 -5.96875 63.53125 C-9.78315907 62.53363532 -12.42250467 59.88380637 -15 57 C-16.18273763 54.63452473 -16.13903738 53.17656798 -16.16113281 50.5378418 C-16.17074036 49.61315598 -16.1803479 48.68847015 -16.19024658 47.73576355 C-16.19449646 46.73370377 -16.19874634 45.73164398 -16.203125 44.69921875 C-16.20882507 43.6706929 -16.21452515 42.64216705 -16.22039795 41.58247375 C-16.22985619 39.40273063 -16.23638519 37.22297314 -16.24023438 35.04321289 C-16.24993017 31.71149648 -16.28094216 28.3803994 -16.3125 25.04882812 C-16.31903093 22.93229533 -16.32428105 20.81575813 -16.328125 18.69921875 C-16.3404718 17.70323166 -16.3528186 16.70724457 -16.36553955 15.68107605 C-16.3377009 7.01582895 -16.3377009 7.01582895 -13 3 C-8.94541622 -0.35951227 -5.0659497 -0.75165514 0 0 Z " fill="#010101" transform="translate(572,912)"/>
<path d="M0 0 C4.70854101 1.75416234 7.37158797 3.71927527 10 8 C10.57786126 11.38753215 10.53695686 14.7267526 10.49609375 18.15625 C10.49754898 19.13613892 10.49900421 20.11602783 10.50050354 21.12561035 C10.49884666 23.1933083 10.48730913 25.26101885 10.46655273 27.32861328 C10.43759948 30.489141 10.44594842 33.64799042 10.45898438 36.80859375 C10.45274654 38.82032063 10.44435525 40.83204223 10.43359375 42.84375 C10.43652939 43.78657837 10.43946503 44.72940674 10.44248962 45.70080566 C10.35640167 51.70338167 9.47605183 55.11127287 5.5 59.75 C2.38758353 62.34368039 -1.09776195 62.27934889 -5.00390625 62.21484375 C-8.93966604 61.79122968 -11.16486456 60.02451749 -13.60522461 57.03076172 C-15.63882229 52.61187818 -15.48714264 48.50790868 -15.50390625 43.6953125 C-15.51389145 42.69797089 -15.52387665 41.70062927 -15.53416443 40.67306519 C-15.54932701 38.56675353 -15.5563908 36.46037008 -15.5559082 34.35400391 C-15.5624646 31.14233879 -15.61695278 27.93377402 -15.67382812 24.72265625 C-15.68263199 22.67188553 -15.688585 20.62110018 -15.69140625 18.5703125 C-15.72374107 17.13874313 -15.72374107 17.13874313 -15.75672913 15.67825317 C-15.69599305 9.72770788 -14.66233403 6.5571248 -10.48350525 2.2572937 C-7.14769892 -0.56985388 -4.26432975 -0.28428865 0 0 Z " fill="#010101" transform="translate(571,796)"/>
<path d="M0 0 C3.23551706 2.11011982 4.85394116 3.78091174 7 7 C7.78093926 14.86405835 5.63658908 20.80983182 2.75 28.0625 C2.35425781 29.09955078 1.95851563 30.13660156 1.55078125 31.20507812 C-4.79476358 47.60987189 -4.79476358 47.60987189 -9.3125 50.5 C-13.41673216 52.16951817 -15.63173545 52.78004724 -20 52 C-24.12417766 49.4067037 -27.11111939 46.5223322 -29 42 C-29.36211825 35.28531639 -26.81073685 29.13222196 -24.25 23.0625 C-23.70484741 21.74862305 -23.70484741 21.74862305 -23.14868164 20.40820312 C-22.11259056 17.93282785 -21.0575705 15.46625228 -20 13 C-19.30970703 11.32744141 -19.30970703 11.32744141 -18.60546875 9.62109375 C-16.85882626 5.70137096 -15.28964535 2.75449494 -11.6875 0.3125 C-7.326783 -1.23961961 -4.38417942 -1.45525283 0 0 Z " fill="#040404" transform="translate(653,104)"/>
</svg>
